<svg viewBox="-200 0 1930 360" class="sc-bdfBwQ ipzhvj desktop-icon" width="164px" color="text" xmlns="http://www.w3.org/2000/svg"><g><title>Layer 1</title><g fill="#39b102" id="svg_1"><path id="svg_2" d="m973.6,181.4c0,97.3 -78.9,176.2 -176.2,176.2c-32.4,0 -63.2,-8.1 -88.9,-24.1c-9.9,-6.1 -13.3,-12.2 -9.3,-20.8c9.3,-20 98,-133.2 97.3,-133.3c0,0 -89.5,71.9 -129.9,97.8c-11.9,7.7 -16.7,0.1 -17.2,-0.6c-13.2,-17.2 -28.2,-62.6 -28.2,-95.3c0,-97.3 78.9,-176.2 176.2,-176.2s176.2,78.9 176.2,176.3z"></path></g><g fill="#FB9FF5"><path id="svg_4" d="m816.1,101c0,13.4 -0.8,26.1 -2.3,37.1c-8.6,11.2 -14.6,21.3 -17.2,28.9c-2.7,-7.6 -8.6,-17.6 -17.1,-28.7c-1.5,-11.1 -2.3,-23.9 -2.3,-37.4c0,-43.4 19.5,-78.7 19.5,-78.7s19.4,35.4 19.4,78.8z"></path><path id="svg_5" d="m787.8,171c-7.1,-3.5 -18.4,-6.4 -32.2,-8.3c-9,-6.9 -18.7,-15.4 -28.4,-25.1c-30.7,-30.7 -41.9,-69.4 -41.9,-69.4s38.7,11.2 69.4,41.9c9.6,9.6 18.1,19.3 24.9,28.3c1.8,13.9 4.7,25.3 8.2,32.6z"></path><path id="svg_6" d="m784.3,179.7c-7.5,2.5 -17.7,8.4 -29,17l0,0c-11.2,1.5 -24.1,2.4 -37.8,2.4c-43.4,0 -78.7,-19.5 -78.7,-19.5s35.2,-19.5 78.7,-19.5c13.8,0 26.8,0.9 38.1,2.4c11.1,8.7 21.2,14.7 28.7,17.2z"></path><path id="svg_7" d="m787.6,188.5c-3.5,7.2 -6.4,18.5 -8.2,32.3c-6.9,9.1 -15.5,18.9 -25.3,28.7c-30.7,30.7 -69.4,41.9 -69.4,41.9s11.2,-38.7 41.9,-69.4c9.8,-9.8 19.6,-18.4 28.7,-25.3l0,0c13.8,-1.8 25.1,-4.7 32.3,-8.2z"></path><path id="svg_8" d="m815.9,258.7c0,43.4 -19.5,78.7 -19.5,78.7s-19.4,-35.3 -19.4,-78.7c0,-13.7 0.9,-26.6 2.4,-37.8c8.6,-11.4 14.6,-21.6 17.1,-29.1c2.5,7.6 8.4,17.8 17.1,29.1c1.4,11.2 2.3,24.1 2.3,37.8z"></path><path id="svg_9" d="m908.1,291.4c0,0 -38.7,-11.2 -69.4,-41.9c-9.8,-9.8 -18.4,-19.6 -25.3,-28.7c-1.8,-13.4 -4.6,-24.4 -7.9,-31.6c7.3,3.5 18.8,6.3 32.8,8.2c8.8,6.8 18.3,15.1 27.8,24.6c30.9,30.8 42,69.4 42,69.4z"></path><path id="svg_10" d="m954,180.3c0,0 -35.2,19.5 -78.7,19.5c-13.4,0 -25.9,-0.8 -36.9,-2.3c-11.7,-9 -22.3,-15.2 -30,-17.7c7.3,-2.4 17.2,-8.1 28.2,-16.4c0,0 0,0 0,0c11.4,-1.6 24.7,-2.5 38.8,-2.5c43.4,-0.1 78.6,19.4 78.6,19.4z"></path><path id="svg_11" d="m908.1,68c0,0 -11.2,38.7 -41.9,69.4c-10.1,10.1 -20.3,18.9 -29.6,26c0,0 0,0 0,0c-13.3,1.9 -24.2,4.7 -31.2,8c3.6,-7.3 6.6,-18.9 8.5,-33.3c6.8,-9 15.3,-18.6 24.9,-28.3c30.7,-30.6 69.3,-41.8 69.3,-41.8z"></path></g><g fill="#FB40EE"><path id="svg_13" d="m851.7,126c-3.7,0.7 -7.4,1.8 -11,3.3c-12.2,5.1 -22.7,11.8 -30.5,19c-0.3,-10.7 -3,-23 -8.1,-35.4c-1.4,-3.5 -3.2,-6.7 -5.2,-9.7c15.7,-23.8 46.2,-34.1 46.2,-34.1s14.3,29 8.6,56.9z"></path><path id="svg_14" d="m796.9,103.2c-2,3 -3.8,6.2 -5.2,9.7c-5,12.2 -7.7,24.2 -8.1,34.8c-7.8,-7.3 -18.3,-14 -30.5,-19.1c-3.7,-1.5 -7.4,-2.6 -11.1,-3.3c-5.3,-27.7 8.8,-56 8.8,-56s30.4,10.2 46.1,33.9z"></path><path id="svg_15" d="m763.8,166.4c-10.5,0.4 -22.6,3.1 -34.7,8.1c-3.5,1.5 -6.8,3.3 -9.9,5.3c-23.3,-15.8 -33.4,-45.8 -33.4,-45.8s28.4,-14.1 56.1,-8.7c0.7,3.8 1.8,7.5 3.3,11.2c5,11.9 11.5,22.2 18.6,29.9z"></path><path id="svg_16" d="m764.1,193.5c-7.1,7.7 -13.6,18 -18.6,30c-1.5,3.6 -2.6,7.3 -3.3,11c-27.9,5.7 -56.8,-8.6 -56.8,-8.6s10.2,-30.3 33.8,-46.1c3.2,2.2 6.6,4.1 10.3,5.6c12.1,5 24.1,7.6 34.6,8.1z"></path><path id="svg_17" d="m796.6,257.5c-15.9,23.2 -45.7,33.3 -45.7,33.3s-14.1,-28.5 -8.7,-56.3c3.5,-0.7 7,-1.8 10.4,-3.2c12.2,-5 22.6,-11.7 30.3,-18.9c0.4,10.5 3,22.6 8.1,34.8c1.6,3.7 3.5,7.1 5.6,10.3z"></path><path id="svg_18" d="m907.9,134.7c0,0 -10.1,29.9 -33.3,45.7c-3.3,-2.3 -6.9,-4.3 -10.7,-5.9c-11.9,-4.9 -23.7,-7.6 -34.1,-8.1c7.1,-7.7 13.7,-18.1 18.7,-30.1c1.4,-3.4 2.4,-6.9 3.2,-10.4c27.8,-5.3 56.2,8.8 56.2,8.8z"></path><path id="svg_19" d="m842.4,290.9c0,0 -30,-10.1 -45.8,-33.4c2.2,-3.2 4.1,-6.7 5.7,-10.4c4.9,-11.9 7.6,-23.8 8.1,-34.2c7.7,7.1 18,13.6 30,18.6c3.5,1.5 7.1,2.5 10.8,3.2c5.3,27.7 -8.8,56.2 -8.8,56.2z"></path><path id="svg_20" d="m907.7,226c0,0 -28.7,14.2 -56.5,8.7c-0.7,-3.7 -1.8,-7.4 -3.3,-11c-4.9,-11.7 -11.2,-21.8 -18.1,-29.5c10.5,-0.4 22.4,-3.1 34.5,-8.1c3.7,-1.5 7.2,-3.5 10.4,-5.7c23,16 33,45.6 33,45.6z"></path></g><polygon id="svg_21" points="822.7999877929688,115.5 796.9000244140625,157 767.9000244140625,115.5 781.0999755859375,164.29998779296875 729.0999755859375,153.39999389648438 774.4000244140625,180.0999755859375 729.0999755859375,207 781.0999755859375,195.9000244140625 767.9000244140625,244.79998779296875 796.9000244140625,202.5999755859375 822.7999877929688,244.79998779296875 813.2999877929688,195.9000244140625 861.5999755859375,207 820,180.0999755859375 861.5999755859375,153.39999389648438 812.7000122070312,164.29998779296875 " fill="#D21276"></polygon><polygon id="svg_22" points="796.7000122070312,93.29998779296875 793.2000122070312,170.5 736,117.89999389648438 788.7000122070312,176.20001220703125 710.7999877929688,179.70001220703125 787.5,183.0999755859375 736.5999755859375,238.5999755859375 793.2000122070312,188.29998779296875 796.7000122070312,264.9000244140625 800.0999755859375,188.79998779296875 856.2000122070312,239.70001220703125 805.2000122070312,183.0999755859375 881.2999877929688,179.70001220703125 806.4000244140625,175.70001220703125 857.2999877929688,119 800.7000122070312,170.5 " fill="#FF2AD8"></polygon><polygon id="svg_23" points="815.0999755859375,134.10000610351562 797.0999755859375,163.70001220703125 776.9000244140625,134.10000610351562 786.0999755859375,168.89999389648438 749.9000244140625,161.10000610351562 781.5,180.20001220703125 749.9000244140625,199.29998779296875 786.0999755859375,191.4000244140625 776.9000244140625,226.4000244140625 797.0999755859375,196.20001220703125 815.0999755859375,226.4000244140625 808.5,191.4000244140625 842.2000122070312,199.29998779296875 813.2000122070312,180.20001220703125 842.2000122070312,161.10000610351562 808.0999755859375,168.89999389648438 " fill="#F53A30"></polygon><path id="svg_24" d="m651.9,247.4" style="fill: none; stroke: rgb(0, 0, 0);"></path><g id="svg_25"><path id="svg_26" d="m167.6,144.3c-0.2,17.2 -2.8,35.4 -15.8,47.2c-13,11.7 -33,20.8 -50.8,20.8l-56.8,-0.3l0,78l-43.5,-0.5l0,-211.5l94.3,0c20.9,0 38.3,6.3 52.2,18.8c13.9,12.6 20.7,28.4 20.4,47.5zm-39.2,-3.5c-0.6,-6.3 -4.5,-13 -10.5,-17.8c-5.4,-4.3 -21.2,-8.1 -34.2,-8.1l-39.6,-0.5l1,59.1l40.3,0c13.6,0 28.4,0.1 36.2,-9.8c6,-7.7 7.5,-15.3 6.8,-22.9z" fill="#26D8AC"></path><path id="svg_27" d="m384,287.2l-47.7,0l-31,-64.2l-97.5,0.8l-29.3,63.4l-45.9,0l99.5,-211.8l50.5,0l101.4,211.8zm-93.5,-103.2l-32.4,-74.7l-32.4,74.9l64.8,-0.2z" fill="#26D8AC"></path><path id="svg_28" d="m589.9,180.5c0,29 -10.4,53.8 -31.2,74.5c-20.8,20.7 -45.6,31.1 -74.4,31.1l-87.3,1.1l-2.3,-212.6l79.1,0c33.7,0 61.5,10.1 83.3,30.2c21.9,20.2 32.8,45.4 32.8,75.7zm-40.1,-1.9c-0.6,-23.5 -12.7,-38.6 -19.3,-46.6c-15.3,-18.5 -28.3,-19.7 -52.7,-19.7l-41.9,0l0,134.1l46.2,-0.7c24,0 31.3,-2.6 49.3,-18.8c9.6,-8.5 19.2,-24.2 18.4,-48.3z" fill="#26D8AC"></path></g><g id="svg_29"><path id="svg_30" d="m1120.6,225.9c0.2,17.2 -5.9,31.9 -18.3,44.1c-12.4,12.2 -27.4,18.3 -45,18.3c-17.6,0 -32.5,-6 -44.8,-18.2c-12.3,-12.1 -18.5,-27.2 -18.7,-45.4l22.2,0c-0.2,11.6 3.7,21.7 11.8,30.2c8,8.5 17.7,12.8 29.1,13c11.9,0.2 22.1,-3.9 30.6,-12.1c8.5,-8.3 12.6,-18.3 12.2,-30.3c-0.6,-19.6 -13.5,-33.4 -38.8,-41.3l-22.5,-7c-11.9,-3.7 -21.2,-10 -27.8,-19.1c-6.6,-9.1 -10,-20 -10.2,-32.6c-0.2,-15.6 5.6,-28.9 17.3,-39.8c11.7,-10.9 25.6,-16.3 41.5,-16.1c15.8,0.2 29.2,5.9 40.2,17.2s16.5,24.8 16.5,40.6l-22.2,0c0.2,-10 -3.1,-18.6 -9.7,-25.8s-14.9,-11.1 -24.5,-11.6c-10.2,-0.6 -19.2,2.8 -27,10.1c-7.8,7.3 -11.5,16 -11.1,26.1c0.4,16.6 8.4,27.3 24.2,32.3l25.6,8c32.5,10.3 49,30.1 49.4,59.4z" fill="#88D27A"></path><path id="svg_31" d="m1361.8,127.7l-58.9,156.8l-24.4,0l-34.1,-103.8l-32,103.8l-24.2,0l-59.4,-156.8l22.1,0l48.9,130.6l36.3,-111.6l17.9,0l35.7,110.6l49.5,-129.5l22.6,0l0,-0.1z" fill="#88D27A"></path><path id="svg_32" d="m1519.6,205.8l0,1.1l0,77.6l-20.9,0l0,-24.5c-17,19.4 -37.8,28.8 -62.5,28c-21.5,-0.7 -39.9,-9.1 -55.1,-25c-15.2,-16 -22.7,-34.9 -22.7,-56.9c0,-22.9 8.2,-42.6 24.5,-59c16.3,-16.4 35.8,-24.2 58.6,-23.2c22,0.7 40.7,9.1 56.1,25.2c15.4,16 22.7,34.9 22,56.7zm-20.9,-1.5c-0.4,-16.5 -6.2,-30.7 -17.6,-42.4c-11.4,-11.8 -25.1,-17.6 -41.1,-17.6c-16.7,0 -31,5.9 -42.7,17.6c-11.8,11.8 -17.7,26 -17.9,42.7c-0.4,16.5 5.1,31 16.4,43.4c11.3,12.4 24.9,19 40.9,19.7c17.3,0.7 32,-5.3 44.2,-18.1c12.2,-12.7 18.2,-27.8 17.8,-45.3z" fill="#88D27A"></path><path id="svg_33" d="m1703,205.8c0,22.9 -8.2,42.6 -24.5,59c-16.3,16.4 -35.8,24.2 -58.3,23.5c-23.1,-0.9 -42.4,-10.2 -58,-27.8l0,78.9l-20.4,0l0,-132.2c0,-0.5 0,-0.9 0,-1.1c0,-22.5 8.2,-42 24.6,-58.4c16.4,-16.4 35.9,-24.2 58.4,-23.5c21.8,0.5 40.3,8.8 55.4,24.8c15.3,15.9 22.8,34.8 22.8,56.8zm-20.9,1.7c0.2,-16.6 -5.3,-31.1 -16.6,-43.5c-11.2,-12.4 -25,-18.9 -41.2,-19.5c-17.3,-0.9 -32.1,5.1 -44.3,18s-18.2,28 -17.8,45.3c0.4,16.6 6.3,30.8 17.7,42.5c11.4,11.8 25.2,17.7 41.4,17.7c16.6,0 30.8,-5.9 42.5,-17.7c11.9,-11.8 18,-26 18.3,-42.8z" fill="#88D27A"></path></g></g></svg>