<?xml version="1.0" encoding="utf-8"?>
<!-- Generator: Adobe Illustrator 21.0.0, SVG Export Plug-In . SVG Version: 6.00 Build 0)  -->
<svg version="1.1" id="Ebene_1" xmlns="http://www.w3.org/2000/svg" xmlns:xlink="http://www.w3.org/1999/xlink" x="0px" y="0px"
	 viewBox="0 0 484.9 485" style="enable-background:new 0 0 484.9 485;" height="256" xml:space="preserve">
<style type="text/css">
	.st0{fill:#D91377;}
	.st1{fill:#53CBC8;}
</style>
<g id="Layer_1">
	<path d="M484.9,242.6c0,133.9-108.5,242.4-242.4,242.4c-44.6,0-87-11.1-122.3-33.2c-13.6-8.4-18.3-16.8-12.8-28.6
		c12.8-27.5,134.8-183.3,133.9-183.4c0,0-123.1,98.9-178.7,134.6c-16.4,10.6-23,0.1-23.7-0.8C20.6,349.9,0,287.4,0,242.4
		C0,108.5,108.5,0,242.4,0C376.3,0,484.9,108.6,484.9,242.6z"/>
</g>
<g id="Layer_3">
	<path class="st0" d="M268.2,131.9c0.1,17.1-1,34.1-3.2,51c-11.8,15.4-20.1,29.3-23.7,39.8c-3.7-10.5-11.8-24.2-23.5-39.5
		c-2.2-17.1-3.2-34.3-3.2-51.5c0-59.7,26.8-108.3,26.8-108.3S268.2,72.2,268.2,131.9z"/>
	<path class="st0" d="M229.2,228.3c-9.8-4.8-25.3-8.8-44.3-11.4c-13.8-10.7-26.8-22.2-39.1-34.5c-42.2-42.2-57.6-95.5-57.6-95.5
		s53.2,15.4,95.5,57.6c12.3,12.2,23.7,25.2,34.3,38.9C220.4,202.5,224.4,218.2,229.2,228.3z"/>
	<path class="st0" d="M184.5,263.6"/>
	<path class="st0" d="M24.2,240.1c0,0,48.4-26.8,108.3-26.8c17.5,0,35,1.1,52.4,3.3c15.3,12,29.2,20.2,39.5,23.7"/>
	<path class="st0" d="M257.6,240.4c10-3.3,23.7-11.1,38.8-22.6l0,0c17.7-2.4,35.5-3.5,53.4-3.4c59.7-0.1,108.1,26.7,108.1,26.7"/>
	<path class="st0" d="M394.7,86.5c0,0-15.4,53.2-57.6,95.5c-12.8,12.8-26.4,24.8-40.7,35.8l0,0c-18.3,2.6-33.3,6.5-42.9,11
		c5-10,9.1-26,11.7-45.8c10.6-13.7,22-26.7,34.3-38.9C341.6,102,394.7,86.5,394.7,86.5z"/>
</g>
<g id="Layer_4">
	<path class="st1" d="M317.1,166.3c-5.2,1-10.3,2.5-15.1,4.5c-15.4,6.2-29.6,15.1-42,26.1c-0.4-14.7-4.1-31.6-11.1-48.7
		c-1.9-4.7-4.3-9.2-7.2-13.3c21.6-32.7,63.6-46.9,63.6-46.9S325,128,317.1,166.3z"/>
	<path class="st1" d="M241.7,135c-2.8,4.2-5.2,8.7-7.2,13.3c-6.9,16.8-10.6,33.3-11.1,47.9c-10.7-10-25.2-19.3-42-26.3
		c-4.9-2-10-3.5-15.3-4.5c-7.3-38.1,12.1-77,12.1-77S220.1,102.4,241.7,135z"/>
	<path class="st1" d="M196.2,221.9c-14.4,0.6-31.1,4.3-47.7,11.1c-4.7,2-9.3,4.5-13.6,7.3c-32.1-21.7-46-63-46-63s39.1-19.4,77.2-12
		c1,5.3,2.5,10.4,4.5,15.4C177.5,197.2,186.4,211.3,196.2,221.9z"/>
	<path class="st1" d="M394.5,178.3c0,0-13.9,41.1-45.8,62.9c-4.6-3.2-9.5-5.9-14.7-8.1c-14.9-6.3-30.8-10.1-46.9-11.1
		c10.9-12.2,19.6-26.2,25.7-41.4c1.9-4.6,3.3-9.4,4.4-14.3C355.4,158.9,394.5,178.3,394.5,178.3z"/>
</g>
<g id="Layer_5">
	<polyline class="st1" points="273.5,240.8 330.8,204 263.5,219 277.4,151.9 241.7,209 201.8,151.9 220,219 148.5,204 210.8,240.8 	
		"/>
	<path class="st1" d="M241.7,271.7"/>
	<path class="st1" d="M220,262.5"/>
</g>
<g id="Layer_6">
	<polyline points="253.2,244.9 357.9,240.2 254.8,234.7 324.8,156.7 247,227.6 241.5,121.4 236.7,227.6 158,155.2 230.5,235.4 
		123.3,240.2 228.8,244.9 	"/>
	<path d="M236.7,252.1"/>
</g>
<g id="Layer_7">
	<polyline points="264.2,240.9 304.1,214.6 257.2,225.4 266.8,177.5 242,218.2 214.2,177.5 226.9,225.4 177.1,214.6 220.6,240.9 	
		"/>
	<path d="M257.7,256.3"/>
	<path d="M242,262.9"/>
	<path d="M226.9,256.3"/>
</g>
<g id="Layer_8">
	<circle class="st0" cx="111.4" cy="265.6" r="8"/>
	<path class="st0" d="M405.9,266.1"/>
	<path class="st0" d="M198.7,273.5h-64.6c-4.4-1.5-6.7-6.3-5.2-10.7c0.8-2.4,2.8-4.3,5.2-5.2h84.7"/>
	<path class="st0" d="M180.7,319.6h189.6c4.4,1.8,6.5,6.9,4.6,11.3c-0.9,2.1-2.5,3.7-4.6,4.6H168.7"/>
	<path class="st0" d="M156.3,352.1h33.3c4.4,1.9,6.4,6.9,4.6,11.3c-0.9,2.1-2.5,3.7-4.6,4.6h-45"/>
	<path class="st0" d="M213.5,366.6c-4.4-1.5-6.7-6.3-5.2-10.7c0.8-2.4,2.7-4.3,5.2-5.2h196.4c4.4,1.9,6.4,6.9,4.6,11.3
		c-0.9,2.1-2.5,3.7-4.6,4.6H213.5z"/>
	<path class="st0" d="M252.6,397.7c-4.4-1.6-6.7-6.4-5.1-10.8c0.8-2.4,2.7-4.3,5.1-5.1h120.7c4.4,1.9,6.4,6.9,4.6,11.3
		c-0.9,2.1-2.5,3.7-4.6,4.6H252.6z"/>
	<path class="st0" d="M178.7,429.2c-4.4-1.5-6.7-6.3-5.2-10.7c0.8-2.4,2.8-4.3,5.2-5.2h123.5c4.4,1.8,6.5,6.9,4.6,11.3
		c-0.9,2.1-2.5,3.7-4.6,4.6H178.7z"/>
	<path class="st0" d="M203.6,289.3h71.8c4.4,1.8,6.5,6.9,4.6,11.3c-0.9,2.1-2.5,3.7-4.6,4.6h-83.4"/>
	<circle class="st0" cx="58.2" cy="297.3" r="8"/>
	<circle class="st0" cx="111.4" cy="327.5" r="8"/>
	<circle class="st0" cx="69.5" cy="360" r="8"/>
	<circle class="st0" cx="229.2" cy="389.9" r="8"/>
	<circle class="st0" cx="156.5" cy="421.3" r="8"/>
	<path class="st0" d="M157.7,305.3H80.2c-4.4-1.6-6.7-6.4-5.1-10.8c0.8-2.4,2.7-4.3,5.1-5.1h98.3"/>
	<path class="st0" d="M227.8,257.6h172.3c4.4,1.8,6.5,6.9,4.6,11.3c-0.9,2.1-2.5,3.7-4.6,4.6H216"/>
</g>
</svg>
