<?xml version="1.0" encoding="utf-8"?>
<!-- Generator: Adobe Illustrator 21.0.0, SVG Export Plug-In . SVG Version: 6.00 Build 0)  -->
<svg version="1.1" id="Ebene_1" xmlns="http://www.w3.org/2000/svg" xmlns:xlink="http://www.w3.org/1999/xlink" x="0px" y="0px"
	 viewBox="0 0 474.9 475" style="enable-background:new 0 0 474.9 475;" height="256" xml:space="preserve">
<style type="text/css">
	.st0{fill:#0E122F;}
	.st1{fill:#55C8C5;}
	.st2{fill:#F2B705;}
</style>
<g id="Layer_1">
	<path class="st0" d="M474.9,237.6c0,131.1-106.3,237.4-237.4,237.4c-43.7,0-85.2-10.9-119.8-32.5c-13.3-8.2-17.9-16.4-12.5-28
		c12.5-27,132.1-179.5,131.1-179.6c0,0-120.6,96.9-175,131.8c-16,10.4-22.5,0.1-23.2-0.8C20.2,342.7,0,281.5,0,237.4
		C0,106.3,106.3,0,237.4,0C368.5,0,474.9,106.3,474.9,237.6z"/>
</g>
<g id="Layer_3">
	<path class="st1" d="M262.6,129.2c0.1,16.7-1,33.4-3.1,50c-11.6,15.1-19.7,28.7-23.2,38.9c-3.6-10.2-11.6-23.7-23-38.7
		c-2.1-16.7-3.2-33.5-3.1-50.4c0-58.5,26.3-106,26.3-106S262.6,70.7,262.6,129.2z"/>
	<path class="st1" d="M224.5,223.6c-9.6-4.7-24.8-8.6-43.4-11.2c-13.5-10.4-26.3-21.7-38.3-33.8C101.5,137.2,86.4,85,86.4,85
		s52.1,15.1,93.5,56.5c12,11.9,23.2,24.7,33.6,38.1C215.9,198.4,219.8,213.7,224.5,223.6z"/>
	<path class="st1" d="M219.8,235.3c-10.1,3.4-23.9,11.3-39.1,22.9l0,0c-16.9,2.2-33.9,3.3-50.9,3.2c-58.5,0-106-26.3-106-26.3
		s47.4-26.3,106-26.3c17.2,0,34.3,1,51.3,3.2C196.1,223.8,209.7,231.9,219.8,235.3z"/>
	<path class="st1" d="M292.4,318.7c-12.2-12.1-22.9-14.4-33.4-28c-2.4-18.1-6.2-32.9-10.6-42.6c9.8,4.7,25.3,8.5,44.2,11
		c13.2,10.3,25.7,21.3,37.5,33.1"/>
	<path class="st1" d="M448.5,236.1c0,0-47.4,26.3-106,26.3c-16.6,0.1-33.2-1-49.7-3.1c-15.8-12.1-30-20.5-40.4-23.9
		c9.8-3.2,23.2-10.9,38-22.1l0,0c17.3-2.3,34.8-3.4,52.3-3.4C401,209.8,448.5,236.1,448.5,236.1z"/>
	<path class="st1" d="M386.6,84.8c0,0-15.1,52.1-56.5,93.5c-12.5,12.5-25.8,24.2-39.9,35l0,0c-17.9,2.6-32.6,6.3-42,10.8
		c4.9-9.8,8.9-25.5,11.5-44.9c10.3-13.4,21.5-26.2,33.6-38.1C334.6,99.9,386.6,84.8,386.6,84.8z"/>
</g>
<g id="Layer_4">
	<path class="st2" d="M310.6,162.9c-5.1,1-10,2.5-14.8,4.4c-15.1,6.1-29,14.8-41.1,25.6c-0.4-14.4-4-31-10.9-47.7
		c-1.9-4.6-4.2-9-7-13.1c21.2-32.1,62.3-46,62.3-46S318.3,125.3,310.6,162.9z"/>
	<path class="st2" d="M236.8,132.2c-2.8,4.1-5.1,8.5-7,13.1c-6.7,16.4-10.4,32.6-10.9,46.9c-10.5-9.8-24.7-18.9-41.1-25.7
		c-4.8-2-9.8-3.5-15-4.4c-7.1-37.3,11.9-75.5,11.9-75.5S215.6,100.3,236.8,132.2z"/>
	<path class="st2" d="M192.2,217.4c-14.1,0.5-30.5,4.2-46.8,10.9c-4.6,2-9.1,4.4-13.3,7.1c-31.4-21.3-45-61.7-45-61.7
		s38.3-19,75.6-11.7c1,5.2,2.5,10.2,4.4,15.1C173.8,193.1,182.6,207,192.2,217.4z"/>
	<path class="st2" d="M386.3,174.6c0,0-13.6,40.3-44.9,61.6c-4.5-3.1-9.3-5.8-14.4-8c-14.6-6.2-30.1-9.9-46-10.9
		c10.7-12,19.2-25.7,25.2-40.6c1.8-4.5,3.3-9.2,4.3-14C348.1,155.6,386.3,174.6,386.3,174.6z"/>
	<path class="st2" d="M386.1,297.7c0,0-38.7,19.1-76.1,11.7c-1-5.1-2.5-10-4.4-14.8c-5.9-14.5-14.1-27.9-24.4-39.8
		c14.1-0.5,30.2-4.2,46.5-10.9c4.9-2,9.6-4.6,14-7.7C372.6,257.8,386.1,297.7,386.1,297.7z"/>
</g>
<g id="Layer_5">
	<polygon class="st2" points="271.7,148.8 236.8,204.7 197.7,148.8 215.5,214.5 145.4,199.8 206.4,235.8 173.4,261.7 215.5,257.1 
		215.7,276 236.8,266.1 261.3,298.2 258.9,257.1 323.9,272.1 267.9,235.8 323.9,199.8 258,214.5 	"/>
</g>
<g id="Layer_6">
	<polygon class="st0" points="236.5,118.9 231.8,222.9 154.7,152 225.7,230.6 120.7,235.3 224.1,239.9 203.4,262.4 231.8,246.9 
		236.5,350.1 241.1,247.5 316.7,316.1 247.9,239.9 350.5,235.3 249.6,229.9 318.1,153.5 241.9,222.9 	"/>
</g>
<g id="Layer_7">
	<polygon class="st0" points="261.3,173.8 237,213.7 209.8,173.8 222.2,220.7 173.4,210.2 216,236 173.4,261.7 222.2,251 
		209.8,298.2 237,257.5 261.3,298.2 252.4,251 297.8,261.7 258.7,236 297.8,210.2 251.9,220.7 	"/>
</g>
<g id="Layer_9">
	<path class="st0" d="M48.1,277.9c-3.6,2.4-12,1.5-15.6-2.9c-4-4.8-2-11,1.6-15c13.6-13.1,29.5-23.6,46.8-31
		c19.6-7.3,40.2-11.5,61.2-12.5c106.9-3.7,110.2,60.1,193.4,71.1c40.1,5.3,65.8-14.7,81-30.8c5.3-2.8,12.1-0.4,16.1,3.3
		c3.7,3.9,3.7,9.9,0,13.8c-21.6,19.8-41.1,41.1-98.7,37c-73.6-5.1-84.1-78.2-190.7-71.1c-22,1.5-38.2,5.4-54,13.1
		C70.1,262,69,263.9,48.1,277.9z"/>
</g>
<g id="Layer_8">
	<path class="st1" d="M108.7,332.9v-38.3c2.3-6.6,9.6-10.1,16.2-7.8c3.6,1.3,6.5,4.1,7.8,7.8v20.9"/>
	<path class="st1" d="M61.6,366.7v-47.1c2.3-6.6,9.6-10.1,16.2-7.8c3.6,1.3,6.5,4.1,7.8,7.8v30.5"/>
	<path class="st1" d="M180.3,308.6v142.6c-2.8,6.6-10.4,9.7-17.1,6.9c-3.1-1.3-5.6-3.8-6.9-6.9V340.5"/>
	<path class="st1" d="M202.5,314.3c2.3-6.6,9.6-10.1,16.2-7.8c3.6,1.3,6.5,4.1,7.8,7.8v88.8c-2.8,6.6-10.4,9.7-17.1,6.9
		c-3.1-1.3-5.6-3.8-6.9-6.9V314.3z"/>
	<path class="st1" d="M248.2,341.4c2.3-6.6,9.6-10.1,16.2-7.8c3.6,1.3,6.5,4.1,7.8,7.8V371c-2.8,6.6-10.4,9.7-17.1,6.9
		c-3.1-1.3-5.6-3.8-6.9-6.9V341.4z"/>
	<path class="st1" d="M296,358.6c2.3-6.6,9.6-10.1,16.2-7.8c3.6,1.3,6.5,4.1,7.8,7.8v92.8c-2.8,6.6-10.4,9.7-17,6.9
		c-3.1-1.3-5.6-3.8-6.9-6.9L296,358.6z"/>
	<path class="st1" d="M343.4,364.1c2.3-6.6,9.6-10.1,16.2-7.8c3.6,1.3,6.5,4.1,7.8,7.8v67.3c-2.8,6.6-10.4,9.7-17.1,6.9
		c-3.1-1.3-5.6-3.8-6.9-6.9L343.4,364.1z"/>
	<path class="st1" d="M389.8,353.2c2.3-6.6,9.6-10.1,16.2-7.8c3.6,1.3,6.5,4.1,7.8,7.8v40.3c-2.8,6.6-10.4,9.7-17,7
		c-3.1-1.3-5.6-3.8-7-7V353.2z"/>
	<path class="st1" d="M58.4,301.1c-3.4,2.7-11.9,1.5-15.6-2.9c-3.9-4.8-2-11,1.6-15c13.6-13.1,29.4-23.6,46.7-31
		c19.6-7.3,40.2-11.5,61-12.5c106.6-3.7,102.7,71.4,192.9,71.1c40.3-0.1,65.6-14.7,80.8-30.8c5.3-2.8,12.1-0.4,16,3.3
		c3.6,3.9,3.6,9.9,0,13.8c-21.6,19.8-58.9,37-98.4,35.7c-95-3.2-95.2-70.5-190.3-69.8c-22,0.2-38.1,4.1-53.9,11.7
		C80.4,283.9,75.1,287.5,58.4,301.1z"/>
	<path class="st1" d="M132.7,373v44.1c-2.8,6.6-10.4,9.7-17.1,6.9c-3.1-1.3-5.6-3.8-6.9-6.9v-9.2"/>
</g>
</svg>
