<?xml version="1.0" encoding="utf-8"?>
<!-- Generator: Adobe Illustrator 21.0.0, SVG Export Plug-In . SVG Version: 6.00 Build 0)  -->
<svg version="1.1" id="Ebene_1" xmlns="http://www.w3.org/2000/svg" xmlns:xlink="http://www.w3.org/1999/xlink" x="0px" y="0px"
	 viewBox="0 0 417.9 418" style="enable-background:new 0 0 417.9 418;" height="256" xml:space="preserve">
<style type="text/css">
	.st0{fill:#1FDE4E;}
	.st1{fill:#E190DC;}
	.st2{fill:#FB40EE;}
	.st3{fill:#AE1A63;}
	.st4{fill:#FF2AD8;}
	.st5{fill:#FF5006;}
</style>
<g id="Layer_2">
	<g id="Layer_1-2">
		<path class="st0" d="M417.9,209.1c0,115.4-93.6,208.9-208.9,208.9c-38.4,0-74.9-9.6-105.4-28.6c-11.7-7.2-15.8-14.5-11-24.7
			c11-23.7,116.2-158,115.4-158.1c0,0-106.1,85.3-154,116c-14.1,9.1-19.8,0.1-20.4-0.7C17.8,301.6,0,247.7,0,208.9
			C0,93.6,93.6,0,208.9,0C324.3,0,417.9,93.6,417.9,209.1z"/>
		<path class="st1" d="M231.1,113.7c0.1,14.7-0.8,29.4-2.7,44C218.2,171,211.1,183,208,192c-3.2-9-10.2-20.9-20.3-34
			c-1.9-14.7-2.8-29.5-2.7-44.3c0-51.5,23.1-93.3,23.1-93.3S231.1,62.3,231.1,113.7z"/>
		<path class="st1" d="M197.6,196.7c-8.4-4.2-21.8-7.6-38.2-9.8c-11.9-9.2-23.1-19.1-33.7-29.8C89.3,120.7,76,74.8,76,74.8
			s45.9,13.3,82.3,49.7c10.6,10.5,20.5,21.7,29.5,33.6C190,174.6,193.4,188.1,197.6,196.7z"/>
		<path class="st1" d="M193.4,207c-8.9,3-21,10-34.4,20.2l0,0c-14.9,1.9-29.8,2.9-44.8,2.8c-51.5,0-93.3-23.1-93.3-23.1
			s41.7-23.1,93.3-23.1c15.1,0,30.2,0.9,45.2,2.8C172.5,197,184.5,204.1,193.4,207z"/>
		<path class="st1" d="M197.3,217.5c-4.2,8.5-7.6,21.9-9.7,38.3c-9.2,12-19.2,23.4-30,34c-36.4,36.4-82.3,49.7-82.3,49.7
			s13.3-45.9,49.7-82.3c10.7-10.8,22-20.8,34-30l0,0C175.4,225.1,188.8,221.6,197.3,217.5z"/>
		<path class="st1" d="M230.9,300.7c0,51.5-23.1,93.3-23.1,93.3s-23-41.9-23-93.3c0-15,0.9-30,2.8-44.8
			c10.2-13.5,17.3-25.6,20.3-34.5c3,9,10,21.1,20.3,34.5C230,270.8,230.9,285.7,230.9,300.7z"/>
		<path class="st1" d="M340.2,339.5c0,0-45.9-13.3-82.3-49.7c-10.8-10.7-20.8-22-30-34c-2.1-15.9-5.5-28.9-9.4-37.5
			c8.7,4.2,22.3,7.5,38.9,9.7c11.6,9,22.6,18.8,33,29.2C327,293.7,340.2,339.5,340.2,339.5z"/>
		<path class="st1" d="M394.6,207.8c0,0-41.7,23.1-93.3,23.1c-14.6,0.1-29.2-0.8-43.8-2.7c-13.9-10.7-26.4-18-35.6-21
			c8.7-2.8,20.4-9.6,33.4-19.4l0,0c15.3-2,30.6-3,46-3C352.9,184.6,394.6,207.8,394.6,207.8z"/>
		<path class="st1" d="M340.2,74.6c0,0-13.3,45.9-49.7,82.3c-11,11-22.7,21.3-35.1,30.8l0,0c-15.8,2.3-28.7,5.6-37,9.5
			c4.3-8.7,7.8-22.4,10.1-39.5c9.1-11.8,19-23,29.5-33.6C294.4,87.9,340.2,74.6,340.2,74.6z"/>
		<path class="st2" d="M273.3,143.4c-4.5,0.8-8.8,2.2-13,3.9c-13.3,5.4-25.5,13-36.2,22.5c-0.4-12.7-3.6-27.3-9.6-42
			c-1.6-4-3.7-7.9-6.2-11.5c18.6-28.2,54.8-40.4,54.8-40.4S280.1,110.3,273.3,143.4z"/>
		<path class="st2" d="M208.3,116.3c-2.4,3.6-4.5,7.5-6.2,11.5c-5.9,14.5-9.1,28.7-9.6,41.3c-9.2-8.7-21.7-16.6-36.2-22.6
			c-4.2-1.7-8.7-3-13.2-3.9c-6.3-32.8,10.4-66.4,10.4-66.4S189.7,88.2,208.3,116.3z"/>
		<path class="st2" d="M169.1,191.3c-12.5,0.5-26.8,3.7-41.1,9.6c-4.1,1.8-8,3.9-11.7,6.3c-27.6-18.7-39.6-54.3-39.6-54.3
			s33.7-16.7,66.5-10.3c0.8,4.5,2.2,9,3.9,13.3C153,169.9,160.7,182.1,169.1,191.3z"/>
		<path class="st2" d="M169.5,223.4c-8.4,9.1-16.1,21.3-22.1,35.6c-1.8,4.2-3.1,8.6-3.9,13c-33.1,6.8-67.4-10.2-67.4-10.2
			s12.1-35.9,40.1-54.7c3.8,2.7,7.9,4.9,12.2,6.6C141.5,219.3,155.3,222.6,169.5,223.4z"/>
		<path class="st2" d="M208,299.3c-18.9,27.5-54.2,39.5-54.2,39.5S137.1,305,143.5,272c4.2-0.9,8.4-2.1,12.3-3.8
			c13.2-5.3,25.4-12.9,35.9-22.4c0.7,14.2,4,28.2,9.6,41.3C203.2,291.3,205.4,295.4,208,299.3z"/>
		<path class="st2" d="M340,153.7c0,0-12,35.5-39.5,54.2c-4-2.8-8.2-5.1-12.7-7c-12.8-5.5-26.5-8.7-40.4-9.6
			c9.4-10.5,16.9-22.6,22.2-35.7c1.6-4,2.9-8.1,3.8-12.3C306.3,137,340,153.7,340,153.7z"/>
		<path class="st2" d="M262.3,338.9c0,0-35.6-12-54.3-39.6c2.6-3.9,4.9-8,6.8-12.3c5.5-12.9,8.7-26.6,9.6-40.6
			c9.1,8.4,21.3,16.1,35.6,22.1c4.1,1.7,8.4,3,12.8,3.8C279,305.1,262.3,338.9,262.3,338.9z"/>
		<path class="st2" d="M339.7,261.9c0,0-34,16.8-67,10.3c-0.8-4.5-2.2-8.8-3.9-13c-5.2-12.8-12.4-24.6-21.5-35
			c12.5-0.5,26.6-3.7,40.9-9.6c4.3-1.8,8.5-4.1,12.3-6.8C327.9,226.8,339.7,261.9,339.7,261.9z"/>
		<polygon class="st3" points="239.1,130.9 208.3,180.1 174,130.9 189.6,188.8 127.9,175.9 181.7,207.5 127.9,239.4 189.6,226.3 
			174,284.2 208.3,234.2 239.1,284.2 227.8,226.3 285.1,239.4 235.7,207.5 285.1,175.9 227.1,188.8 		"/>
		<polygon class="st4" points="208.1,104.6 204,196.1 136.1,133.8 198.6,202.9 106.2,207 197.2,211.1 136.8,276.9 204,217.2 
			208.1,308.1 212.1,217.8 278.7,278.2 218.2,211.1 308.4,207 219.6,202.3 280,135.1 212.9,196.1 		"/>
		<polygon class="st5" points="229.9,153 208.6,188.1 184.6,153 195.5,194.2 152.6,185 190.1,207.6 152.6,230.3 195.5,220.9 
			184.6,262.4 208.6,226.6 229.9,262.4 222.1,220.9 262.1,230.3 227.7,207.6 262.1,185 221.6,194.2 		"/>
	</g>
</g>
</svg>
