<svg id="SvgjsSvg2627" xmlns="http://www.w3.org/2000/svg" viewBox="0 0 1080 531.45" width="1080"><defs><style>.cls-1{fill:#fff;}.cls-10,.cls-12,.cls-13,.cls-2,.cls-7,.cls-8,.cls-9{isolation:isolate;}.cls-2{font-size:22.78px;}.cls-10,.cls-12,.cls-13,.cls-2,.cls-8,.cls-9{font-family:ArialMT, Arial;}.cls-14,.cls-15,.cls-16,.cls-18,.cls-3,.cls-4{fill:none;}.cls-3{stroke:#e0e0e0;stroke-dasharray:0;}.cls-17,.cls-19,.cls-5{fill:#9165ed;stroke-opacity:0.9;}.cls-5{stroke:#fff;}.cls-14,.cls-15,.cls-5{stroke-width:2px;}.cls-6{fill:#fefefe;}.cls-10,.cls-12,.cls-13,.cls-8,.cls-9{font-size:26.58px;}.cls-8{letter-spacing:-0.06em;}.cls-10{letter-spacing:-0.09em;}.cls-11{fill:#ebf9ea;stroke:#848484;stroke-width:0.25px;}.cls-11,.cls-14,.cls-15,.cls-16,.cls-18{stroke-miterlimit:10;}.cls-12{fill:#1b3fa5;}.cls-13{fill:#146814;}.cls-14,.cls-16,.cls-17{stroke:#1b3fa5;}.cls-15,.cls-18,.cls-19{stroke:#146814;}.cls-16,.cls-17,.cls-18,.cls-19{stroke-width:4px;}</style></defs><title>pad-supply-glmr</title><rect class="cls-1" width="1080" height="531.45" rx="10.14" ry="10.14"/><g id="SvgjsG2646"><g id="SvgjsG2647"><g id="SvgjsText2649"><text class="cls-2" transform="translate(110.52 467.25)">2022</text></g><g id="SvgjsText2652"><text class="cls-2" transform="translate(200.75 467.25)">2023</text></g><g id="SvgjsText2655"><text class="cls-2" transform="translate(290.99 467.25)">2024</text></g><g id="SvgjsText2658"><text class="cls-2" transform="translate(381.49 467.25)">2025</text></g><g id="SvgjsText2661"><text class="cls-2" transform="translate(471.73 467.25)">2026</text></g><g id="SvgjsText2664"><text class="cls-2" transform="translate(561.96 467.25)">2027</text></g><g id="SvgjsText2667"><text class="cls-2" transform="translate(652.21 467.25)">2028</text></g><g id="SvgjsText2670"><text class="cls-2" transform="translate(742.69 467.25)">2029</text></g><g id="SvgjsText2673"><text class="cls-2" transform="translate(832.93 467.25)">2030</text></g><g id="SvgjsText2676"><text class="cls-2" transform="translate(923.18 467.25)">2031</text><g id="SvgjsText2676-2" data-name="SvgjsText2676"><text class="cls-2" transform="translate(1014.18 467.25)">2032</text></g></g></g><line id="SvgjsLine2681" class="cls-3" x1="133.13" y1="421.69" x2="1048.14" y2="421.69"/></g><g id="SvgjsG2696"><g id="SvgjsG2697"><line id="SvgjsLine2709" class="cls-3" x1="133.13" y1="33.22" x2="1048.14" y2="33.22"/><line id="SvgjsLine2710" class="cls-3" x1="133.13" y1="110.53" x2="1048.14" y2="110.53"/><line id="SvgjsLine2711" class="cls-3" x1="133.13" y1="187.85" x2="1048.14" y2="187.85"/><line id="SvgjsLine2712" class="cls-3" x1="133.13" y1="265.16" x2="1048.14" y2="265.16"/><line id="SvgjsLine2713" class="cls-3" x1="133.13" y1="342.48" x2="1048.14" y2="342.48"/><line id="SvgjsLine2714" class="cls-3" x1="133.13" y1="419.79" x2="1048.14" y2="419.79"/></g><line id="SvgjsLine2699" class="cls-3" x1="226.84" y1="421.69" x2="226.84" y2="433.08"/><line id="SvgjsLine2700" class="cls-3" x1="317.08" y1="421.69" x2="317.08" y2="433.08"/><line id="SvgjsLine2701" class="cls-3" x1="407.32" y1="421.69" x2="407.32" y2="433.08"/><line id="SvgjsLine2702" class="cls-3" x1="497.81" y1="421.69" x2="497.81" y2="433.08"/><line id="SvgjsLine2703" class="cls-3" x1="588.05" y1="421.69" x2="588.05" y2="433.08"/><line id="SvgjsLine2704" class="cls-3" x1="678.29" y1="421.69" x2="678.29" y2="433.08"/><line id="SvgjsLine2705" class="cls-3" x1="768.53" y1="421.69" x2="768.53" y2="433.08"/><line id="SvgjsLine2706" class="cls-3" x1="859.03" y1="421.69" x2="859.03" y2="433.08"/><line id="SvgjsLine2707" class="cls-3" x1="949.27" y1="421.69" x2="949.27" y2="433.08"/><line id="SvgjsLine2708" class="cls-3" x1="1039.51" y1="421.69" x2="1039.51" y2="433.08"/><line id="SvgjsLine2716" class="cls-4" x1="133.13" y1="419.79" x2="1048.14" y2="419.79"/><line id="SvgjsLine2715" class="cls-4" x1="133.13" y1="35.12" x2="133.13" y2="419.79"/><line id="SvgjsLine2699-2" data-name="SvgjsLine2699" class="cls-3" x1="136.84" y1="421.69" x2="136.84" y2="433.08"/></g><polyline class="cls-4" points="1056.69 424.54 124.59 424.54 124.59 28.47 1056.69 28.47"/><g id="SvgjsG2643"><circle id="SvgjsCircle2722" class="cls-5" cx="977.88" cy="37.8"/></g><line id="SvgjsLine2718" class="cls-4" x1="133.13" y1="33.22" x2="1048.14" y2="33.22"/><polygon id="SvgjsRect2723" class="cls-6" points="133.13 33.22 133.13 33.22 133.13 33.22 133.13 33.22"/><polygon id="SvgjsRect2724" class="cls-6" points="133.13 33.22 133.13 33.22 133.13 33.22 133.13 33.22"/><g id="SvgjsG2682"><g id="SvgjsG2683"><g id="SvgjsText2684"><text class="cls-2" transform="translate(54.63 36.07)">200B</text></g><g id="SvgjsText2686"><text class="cls-2" transform="translate(54.63 113.39)">160B</text></g><g id="SvgjsText2688"><text class="cls-2" transform="translate(54.63 190.7)">120B</text></g><g id="SvgjsText2690"><text class="cls-2" transform="translate(67.3 268.02)">80B</text></g><g id="SvgjsText2692"><text class="cls-2" transform="translate(67.3 345.33)">40B</text></g><g id="SvgjsText2694"><text class="cls-2" transform="translate(79.97 422.65)">0B</text></g></g></g><g class="cls-7"><text class="cls-8" transform="translate(526.63 515.38)">T</text><text class="cls-9" transform="translate(541.88 515.38)">ime</text></g><g class="cls-7"><text class="cls-10" transform="translate(35.85 271.92) rotate(-90)">P</text><text class="cls-9" transform="translate(35.85 256.16) rotate(-90)">AD</text></g><rect class="cls-11" x="780.1" y="183.54" width="271.41" height="105.13" rx="10.14" ry="10.14"/><text class="cls-12" transform="translate(824.71 223.39)">Circulating Supply</text><text class="cls-13" transform="translate(824.71 266.07)">Reward Supply</text><line class="cls-14" x1="793.39" y1="216.69" x2="810.69" y2="216.69"/><line class="cls-15" x1="795.29" y1="258.45" x2="812.58" y2="258.45"/><g id="SvgjsG3033"><g id="SvgjsG3034"><path id="SvgjsPath3037" class="cls-16" d="M144.95,382.8c14.06-17.74,28.8-35,44.26-51.53,14.11-15.1,28.72-29.72,44-43.66q21.28-19.43,44-37.17,21.4-16.66,44-31.68,21.51-14.29,44-27,21.67-12.27,44.13-23.05c14.5-7,29.25-13.52,44.13-19.63,14.5-6,29.2-11.47,44-16.68q21.82-7.6,44-14.21c14.57-4.37,29.26-8.34,44-12.1s29.29-7.1,44-10.31,29.38-6.07,44.13-8.8,29.42-5.17,44.15-7.54S747.1,75,761.79,73s29.32-3.74,44-5.42,29.33-3.18,44-4.62,29.34-2.68,44-3.86,29.5-2.32,44.26-3.38,29.33-2,44-2.86,29.34-1.69,44-2.43q10.63-.54,21.26-1"/><g id="SvgjsG3035"><circle id="SvgjsCircle3114" class="cls-17" cx="848.82" cy="63.13"/></g></g></g><g id="SvgjsG3033-2"><g id="SvgjsG3034-2"><path id="SvgjsPath3037-2" class="cls-18" d="M1047.36,405.07q-10.64-.5-21.26-1-22-1.12-44-2.43t-44-2.86q-22.13-1.57-44.26-3.38t-44-3.94c-14.66-1.4-29.36-2.94-44-4.62s-29.36-3.46-44-5.42-29.36-4.05-44-6.37-29.46-4.78-44.13-7.5-29.47-5.62-44.13-8.8-29.41-6.58-44-10.31-29.43-7.74-44-12.1c-14.77-4.42-29.47-9.1-44-14.21-14.8-5.2-29.5-10.69-44-16.68-14.89-6.13-29.64-12.63-44.13-19.63Q386.91,275,365.23,262.73q-22.46-12.73-44-27-22.59-15-44-31.68-22.74-17.74-44-37.17-22.9-20.91-44-43.63C173.77,106.65,159,89.42,145,71.68"/><g id="SvgjsG3035-2"><circle id="SvgjsCircle3114-2" class="cls-19" cx="848.82" cy="391.33"/></g></g></g></svg>