<svg id="SvgjsSvg2627" xmlns="http://www.w3.org/2000/svg" viewBox="0 0 1278.43 629.1" width="1080"><defs><style>.cls-1{fill:#fff;}.cls-2,.cls-3{isolation:isolate;}.cls-3{font-size:26.96px;}.cls-12,.cls-13,.cls-3,.cls-8{font-family:ArialMT, Arial;}.cls-14,.cls-15,.cls-16,.cls-18,.cls-4,.cls-5{fill:none;}.cls-4{stroke:#e0e0e0;stroke-dasharray:0;}.cls-17,.cls-19,.cls-6{fill:#9165ed;stroke-opacity:0.9;}.cls-6{stroke:#fff;}.cls-14,.cls-15,.cls-6{stroke-width:2px;}.cls-7{fill:#fefefe;}.cls-12,.cls-13,.cls-8{font-size:31.46px;}.cls-9{letter-spacing:-0.04em;}.cls-10{letter-spacing:-0.07em;}.cls-11{fill:#ebf9ea;stroke:#848484;stroke-width:0.25px;}.cls-11,.cls-14,.cls-15,.cls-16,.cls-18{stroke-miterlimit:10;}.cls-12{fill:#1b3fa5;}.cls-13{fill:#146814;}.cls-14,.cls-16,.cls-17{stroke:#1b3fa5;}.cls-15,.cls-18,.cls-19{stroke:#146814;}.cls-16,.cls-17,.cls-18,.cls-19{stroke-width:4px;}</style></defs><title>vuechartxexample_movr</title><rect class="cls-1" width="1278.43" height="629.1" rx="12" ry="12"/><g id="SvgjsG2646"><g id="SvgjsG2647"><g id="SvgjsText2649" class="cls-2"><text class="cls-3" transform="translate(211.32 553.1)">2022</text></g><g id="SvgjsText2652" class="cls-2"><text class="cls-3" transform="translate(318.13 553.1)">2023</text></g><g id="SvgjsText2655" class="cls-2"><text class="cls-3" transform="translate(424.95 553.1)">2024</text></g><g id="SvgjsText2658" class="cls-2"><text class="cls-3" transform="translate(532.07 553.1)">2025</text></g><g id="SvgjsText2661" class="cls-2"><text class="cls-3" transform="translate(638.89 553.1)">2026</text></g><g id="SvgjsText2664" class="cls-2"><text class="cls-3" transform="translate(745.71 553.1)">2027</text></g><g id="SvgjsText2667" class="cls-2"><text class="cls-3" transform="translate(852.53 553.1)">2028</text></g><g id="SvgjsText2670" class="cls-2"><text class="cls-3" transform="translate(959.64 553.1)">2029</text></g><g id="SvgjsText2673" class="cls-2"><text class="cls-3" transform="translate(1066.46 553.1)">2030</text></g><g id="SvgjsText2676" class="cls-2"><text class="cls-3" transform="translate(1173.29 553.1)">2031</text></g></g><line id="SvgjsLine2681" class="cls-4" x1="157.59" y1="499.17" x2="1240.72" y2="499.17"/></g><g id="SvgjsG2696"><g id="SvgjsG2697"><line id="SvgjsLine2709" class="cls-4" x1="157.59" y1="39.32" x2="1240.72" y2="39.32"/><line id="SvgjsLine2710" class="cls-4" x1="157.59" y1="130.84" x2="1240.72" y2="130.84"/><line id="SvgjsLine2711" class="cls-4" x1="157.59" y1="222.36" x2="1240.72" y2="222.36"/><line id="SvgjsLine2712" class="cls-4" x1="157.59" y1="313.88" x2="1240.72" y2="313.88"/><line id="SvgjsLine2713" class="cls-4" x1="157.59" y1="405.4" x2="1240.72" y2="405.4"/><line id="SvgjsLine2714" class="cls-4" x1="157.59" y1="496.92" x2="1240.72" y2="496.92"/></g><line id="SvgjsLine2699" class="cls-4" x1="241.29" y1="499.17" x2="241.29" y2="512.65"/><line id="SvgjsLine2700" class="cls-4" x1="348.11" y1="499.17" x2="348.11" y2="512.65"/><line id="SvgjsLine2701" class="cls-4" x1="454.93" y1="499.17" x2="454.93" y2="512.65"/><line id="SvgjsLine2702" class="cls-4" x1="562.05" y1="499.17" x2="562.05" y2="512.65"/><line id="SvgjsLine2703" class="cls-4" x1="668.87" y1="499.17" x2="668.87" y2="512.65"/><line id="SvgjsLine2704" class="cls-4" x1="775.69" y1="499.17" x2="775.69" y2="512.65"/><line id="SvgjsLine2705" class="cls-4" x1="882.51" y1="499.17" x2="882.51" y2="512.65"/><line id="SvgjsLine2706" class="cls-4" x1="989.63" y1="499.17" x2="989.63" y2="512.65"/><line id="SvgjsLine2707" class="cls-4" x1="1096.45" y1="499.17" x2="1096.45" y2="512.65"/><line id="SvgjsLine2708" class="cls-4" x1="1203.27" y1="499.17" x2="1203.27" y2="512.65"/><line id="SvgjsLine2716" class="cls-5" x1="157.59" y1="496.92" x2="1240.72" y2="496.92"/><line id="SvgjsLine2715" class="cls-5" x1="157.59" y1="41.57" x2="157.59" y2="496.92"/></g><polyline class="cls-5" points="1250.84 502.54 147.48 502.54 147.48 33.7 1250.84 33.7"/><g id="SvgjsG2643"><circle id="SvgjsCircle2722" class="cls-6" cx="1157.55" cy="44.74"/></g><line id="SvgjsLine2718" class="cls-5" x1="157.59" y1="39.32" x2="1240.72" y2="39.32"/><polygon id="SvgjsRect2723" class="cls-7" points="157.59 39.32 157.59 39.32 157.59 39.32 157.59 39.32"/><polygon id="SvgjsRect2724" class="cls-7" points="157.59 39.32 157.59 39.32 157.59 39.32 157.59 39.32"/><g id="SvgjsG2682"><g id="SvgjsG2683"><g id="SvgjsText2684" class="cls-2"><text class="cls-3" transform="translate(64.67 42.7)">200B</text></g><g id="SvgjsText2686" class="cls-2"><text class="cls-3" transform="translate(64.67 134.22)">160B</text></g><g id="SvgjsText2688" class="cls-2"><text class="cls-3" transform="translate(64.67 225.74)">120B</text></g><g id="SvgjsText2690" class="cls-2"><text class="cls-3" transform="translate(79.66 317.26)">80B</text></g><g id="SvgjsText2692" class="cls-2"><text class="cls-3" transform="translate(79.66 408.78)">40B</text></g><g id="SvgjsText2694" class="cls-2"><text class="cls-3" transform="translate(94.66 500.3)">0B</text></g></g></g><text class="cls-8" transform="translate(623.39 610.07)"><tspan class="cls-9">T</tspan><tspan x="18.05" y="0">ime</tspan></text><text class="cls-8" transform="translate(42.44 321.88) rotate(-90)"><tspan class="cls-10">P</tspan><tspan x="18.65" y="0">AD</tspan></text><rect class="cls-11" x="923.43" y="217.26" width="321.28" height="124.44" rx="12" ry="12"/><text class="cls-12" transform="translate(976.24 264.43)">Circulating Supply</text><text class="cls-13" transform="translate(976.24 314.95)">Reward Supply</text><line class="cls-14" x1="939.16" y1="256.5" x2="959.64" y2="256.5"/><line class="cls-15" x1="941.41" y1="305.93" x2="961.88" y2="305.93"/><g id="SvgjsG3033"><g id="SvgjsG3034"><path id="SvgjsPath3037" class="cls-16" d="M171.58,453.13c16.64-21,34.09-41.43,52.39-61,16.7-17.88,34-35.18,52.09-51.68q25.19-23,52.09-44,25.33-19.72,52.09-37.5,25.46-16.91,52.09-32,25.65-14.53,52.24-27.29c17.16-8.29,34.62-16,52.24-23.24,17.17-7.07,34.57-13.58,52.09-19.74,17.22-6,34.61-11.58,52.09-16.82,17.25-5.17,34.64-9.87,52.09-14.32,17.28-4.41,34.67-8.41,52.09-12.2s34.78-7.19,52.24-10.42S832.23,96.8,849.67,94s34.7-5.2,52.09-7.54,34.71-4.43,52.09-6.42,34.72-3.77,52.09-5.47S1040.67,71.4,1058,70s34.92-2.75,52.39-4,34.72-2.33,52.09-3.38,34.73-2,52.09-2.88q12.58-.64,25.17-1.23"/><g id="SvgjsG3035"><circle id="SvgjsCircle3114" class="cls-17" cx="1004.78" cy="74.73"/></g></g></g><g id="SvgjsG3033-2" data-name="SvgjsG3033"><g id="SvgjsG3034-2" data-name="SvgjsG3034"><path id="SvgjsPath3037-2" data-name="SvgjsPath3037" class="cls-18" d="M1239.79,479.49q-12.59-.59-25.17-1.23-26.05-1.33-52.09-2.88T1110.43,472q-26.2-1.86-52.39-4c-17.37-1.45-34.74-3-52.09-4.66s-34.75-3.48-52.09-5.47-34.75-4.09-52.09-6.42-34.76-4.8-52.09-7.54-34.87-5.66-52.24-8.88-34.89-6.65-52.24-10.42-34.81-7.79-52.09-12.2c-17.45-4.45-34.84-9.16-52.09-14.32-17.48-5.23-34.88-10.77-52.09-16.82-17.52-6.15-34.92-12.66-52.09-19.74-17.62-7.26-35.08-14.95-52.24-23.24Q458,325.48,432.34,311q-26.59-15.07-52.09-32-26.74-17.76-52.09-37.5-26.92-21-52.09-44C258,181,240.66,163.73,224,145.85c-18.3-19.6-35.75-40-52.39-61"/><g id="SvgjsG3035-2" data-name="SvgjsG3035"><circle id="SvgjsCircle3114-2" data-name="SvgjsCircle3114" class="cls-19" cx="1004.78" cy="463.23"/></g></g></g></svg>