<svg id="SvgjsSvg2627" xmlns="http://www.w3.org/2000/svg" viewBox="0 0 1278.43 629.1" width="1080"><defs><style>.cls-1{fill:#fff;}.cls-2,.cls-3{isolation:isolate;}.cls-3{font-size:26.96px;}.cls-14,.cls-15,.cls-3,.cls-9{font-family:ArialMT, Arial;}.cls-11,.cls-16,.cls-17,.cls-4,.cls-5,.cls-6{fill:none;}.cls-4{stroke:#e0e0e0;stroke-dasharray:0;}.cls-16,.cls-6{stroke:#1b3fa5;}.cls-11,.cls-13,.cls-16,.cls-17,.cls-6{stroke-miterlimit:10;}.cls-11,.cls-6{stroke-width:4px;}.cls-7{fill:#9165ed;stroke:#fff;stroke-opacity:0.9;}.cls-16,.cls-17,.cls-7{stroke-width:2px;}.cls-8{fill:#fefefe;}.cls-14,.cls-15,.cls-9{font-size:31.46px;}.cls-10{letter-spacing:-0.04em;}.cls-11,.cls-17{stroke:#146814;}.cls-12{letter-spacing:-0.07em;}.cls-13{fill:#ebf9ea;stroke:#848484;stroke-width:0.25px;}.cls-14{fill:#1b3fa5;}.cls-15{fill:#146814;}</style></defs><title>vuechartxexample</title><rect class="cls-1" width="1278.43" height="629.1" rx="12" ry="12"/><g id="SvgjsG2646"><g id="SvgjsG2647"><g id="SvgjsText2649" class="cls-2"><text class="cls-3" transform="translate(211.32 553.1)">2022</text></g><g id="SvgjsText2652" class="cls-2"><text class="cls-3" transform="translate(318.13 553.1)">2023</text></g><g id="SvgjsText2655" class="cls-2"><text class="cls-3" transform="translate(424.95 553.1)">2024</text></g><g id="SvgjsText2658" class="cls-2"><text class="cls-3" transform="translate(532.07 553.1)">2025</text></g><g id="SvgjsText2661" class="cls-2"><text class="cls-3" transform="translate(638.89 553.1)">2026</text></g><g id="SvgjsText2664" class="cls-2"><text class="cls-3" transform="translate(745.71 553.1)">2027</text></g><g id="SvgjsText2667" class="cls-2"><text class="cls-3" transform="translate(852.53 553.1)">2028</text></g><g id="SvgjsText2670" class="cls-2"><text class="cls-3" transform="translate(959.64 553.1)">2029</text></g><g id="SvgjsText2673" class="cls-2"><text class="cls-3" transform="translate(1066.46 553.1)">2030</text></g><g id="SvgjsText2676" class="cls-2"><text class="cls-3" transform="translate(1173.29 553.1)">2031</text></g></g><line id="SvgjsLine2681" class="cls-4" x1="157.59" y1="499.17" x2="1240.72" y2="499.17"/></g><g id="SvgjsG2696"><g id="SvgjsG2697"><line id="SvgjsLine2709" class="cls-4" x1="157.59" y1="39.32" x2="1240.72" y2="39.32"/><line id="SvgjsLine2710" class="cls-4" x1="157.59" y1="130.84" x2="1240.72" y2="130.84"/><line id="SvgjsLine2711" class="cls-4" x1="157.59" y1="222.36" x2="1240.72" y2="222.36"/><line id="SvgjsLine2712" class="cls-4" x1="157.59" y1="313.88" x2="1240.72" y2="313.88"/><line id="SvgjsLine2713" class="cls-4" x1="157.59" y1="405.4" x2="1240.72" y2="405.4"/><line id="SvgjsLine2714" class="cls-4" x1="157.59" y1="496.92" x2="1240.72" y2="496.92"/></g><line id="SvgjsLine2699" class="cls-4" x1="241.29" y1="499.17" x2="241.29" y2="512.65"/><line id="SvgjsLine2700" class="cls-4" x1="348.11" y1="499.17" x2="348.11" y2="512.65"/><line id="SvgjsLine2701" class="cls-4" x1="454.93" y1="499.17" x2="454.93" y2="512.65"/><line id="SvgjsLine2702" class="cls-4" x1="562.05" y1="499.17" x2="562.05" y2="512.65"/><line id="SvgjsLine2703" class="cls-4" x1="668.87" y1="499.17" x2="668.87" y2="512.65"/><line id="SvgjsLine2704" class="cls-4" x1="775.69" y1="499.17" x2="775.69" y2="512.65"/><line id="SvgjsLine2705" class="cls-4" x1="882.51" y1="499.17" x2="882.51" y2="512.65"/><line id="SvgjsLine2706" class="cls-4" x1="989.63" y1="499.17" x2="989.63" y2="512.65"/><line id="SvgjsLine2707" class="cls-4" x1="1096.45" y1="499.17" x2="1096.45" y2="512.65"/><line id="SvgjsLine2708" class="cls-4" x1="1203.27" y1="499.17" x2="1203.27" y2="512.65"/><line id="SvgjsLine2716" class="cls-5" x1="157.59" y1="496.92" x2="1240.72" y2="496.92"/><line id="SvgjsLine2715" class="cls-5" x1="157.59" y1="41.57" x2="157.59" y2="496.92"/></g><polyline class="cls-5" points="1250.84 502.54 147.48 502.54 147.48 33.7 1250.84 33.7"/><path id="SvgjsPath2645" class="cls-6" d="M171.58,473.48A992.69,992.69,0,0,1,224,383.29a799.46,799.46,0,0,1,52.09-71.1,671.67,671.67,0,0,1,52.09-56.4A610.06,610.06,0,0,1,380.24,211a596.38,596.38,0,0,1,52.09-35.49c16.93-10.28,34.41-19.61,52.24-28.23,17.07-8.25,34.55-15.58,52.24-22.38,17.12-6.58,34.55-12.33,52.09-17.7,17.2-5.26,34.62-9.79,52.09-14,17.26-4.19,34.66-7.77,52.09-11.14s34.68-6.17,52.09-8.84,34.8-4.91,52.24-7,34.81-3.89,52.24-5.57,34.72-3.08,52.09-4.41,34.72-2.44,52.09-3.49S988.58,50.8,1006,50s34.73-1.53,52.09-2.2S1093,46.54,1110.43,46s34.73-1,52.09-1.38,34.73-.77,52.09-1.1l25.17-.45"/><g id="SvgjsG2643"><circle id="SvgjsCircle2722" class="cls-7" cx="1157.55" cy="44.74"/></g><line id="SvgjsLine2718" class="cls-5" x1="157.59" y1="39.32" x2="1240.72" y2="39.32"/><polygon id="SvgjsRect2723" class="cls-8" points="157.59 39.32 157.59 39.32 157.59 39.32 157.59 39.32"/><polygon id="SvgjsRect2724" class="cls-8" points="157.59 39.32 157.59 39.32 157.59 39.32 157.59 39.32"/><g id="SvgjsG2682"><g id="SvgjsG2683"><g id="SvgjsText2684" class="cls-2"><text class="cls-3" transform="translate(64.67 42.7)">200B</text></g><g id="SvgjsText2686" class="cls-2"><text class="cls-3" transform="translate(64.67 134.22)">160B</text></g><g id="SvgjsText2688" class="cls-2"><text class="cls-3" transform="translate(64.67 225.74)">120B</text></g><g id="SvgjsText2690" class="cls-2"><text class="cls-3" transform="translate(79.66 317.26)">80B</text></g><g id="SvgjsText2692" class="cls-2"><text class="cls-3" transform="translate(79.66 408.78)">40B</text></g><g id="SvgjsText2694" class="cls-2"><text class="cls-3" transform="translate(94.66 500.3)">0B</text></g></g></g><text class="cls-9" transform="translate(623.39 610.07)"><tspan class="cls-10">T</tspan><tspan x="18.05" y="0">ime</tspan></text><path id="SvgjsPath2645-2" data-name="SvgjsPath2645" class="cls-11" d="M1239.79,494.67l-25.17-.45q-26-.49-52.09-1.1t-52.09-1.38Q1084.24,491,1058,490c-17.37-.66-34.73-1.36-52.09-2.2s-34.74-1.72-52.09-2.77-34.74-2.17-52.09-3.49-34.75-2.73-52.09-4.41-34.86-3.46-52.24-5.57-34.87-4.36-52.24-7-34.8-5.5-52.09-8.84-34.84-6.94-52.09-11.14c-17.48-4.25-34.89-8.78-52.09-14-17.54-5.36-35-11.12-52.09-17.7-17.69-6.8-35.17-14.13-52.24-22.38-17.83-8.62-35.31-18-52.24-28.23a596.38,596.38,0,0,1-52.09-35.49A610.06,610.06,0,0,1,328.15,282a671.67,671.67,0,0,1-52.09-56.4A799.46,799.46,0,0,1,224,154.47a992.69,992.69,0,0,1-52.39-90.19"/><text class="cls-9" transform="translate(42.44 321.88) rotate(-90)"><tspan class="cls-12">P</tspan><tspan x="18.65" y="0">AD</tspan></text><rect class="cls-13" x="923.43" y="217.26" width="321.28" height="124.44" rx="12" ry="12"/><text class="cls-14" transform="translate(976.24 264.43)">Circulating Supply</text><text class="cls-15" transform="translate(976.24 314.95)">Reward Supply</text><line class="cls-16" x1="939.16" y1="256.5" x2="959.64" y2="256.5"/><line class="cls-17" x1="941.41" y1="305.93" x2="961.88" y2="305.93"/></svg>