<?xml version="1.0" encoding="utf-8"?>
<!-- Generator: Adobe Illustrator 21.0.0, SVG Export Plug-In . SVG Version: 6.00 Build 0)  -->
<svg version="1.1" id="Layer_1" xmlns="http://www.w3.org/2000/svg" xmlns:xlink="http://www.w3.org/1999/xlink" x="0px" y="0px"
	 viewBox="0 0 1223 253.2" style="enable-background:new 0 0 1223 253.2;" height="256" xml:space="preserve">
<style type="text/css">
	.st0{fill:#1FDE4E;}
	.st1{fill:#E190DC;}
	.st2{fill:#FB40EE;}
	.st3{fill:#AE1A63;}
	.st4{fill:#FF2AD8;}
	.st5{fill:#FF5006;}
	.st6{fill:none;stroke:#000000;stroke-miterlimit:10;}
	.st7{fill:#26D8AC;}
	.st8{fill:#39B102;}
</style>
<g>
	<path class="st0" d="M699,126.7c0,69.9-56.7,126.6-126.6,126.6c-23.3,0-45.4-5.8-63.9-17.3c-7.1-4.4-9.6-8.8-6.7-14.9
		c6.7-14.4,70.4-95.7,69.9-95.8c0,0-64.3,51.7-93.3,70.3c-8.5,5.5-12,0.1-12.4-0.4c-9.5-12.4-20.3-45-20.3-68.5
		C445.8,56.7,502.5,0,572.4,0S699,56.7,699,126.7z"/>
</g>
<g>
	<path class="st1" d="M585.8,68.9c0,9.6-0.6,18.8-1.7,26.7c-6.2,8-10.5,15.3-12.4,20.8c-1.9-5.5-6.2-12.6-12.3-20.6
		c-1.1-8-1.7-17.2-1.7-26.9c0-31.2,14-56.5,14-56.5S585.8,37.7,585.8,68.9z"/>
	<path class="st1" d="M565.5,119.2c-5.1-2.5-13.2-4.6-23.1-6c-6.5-5-13.4-11.1-20.4-18c-22.1-22.1-30.1-49.9-30.1-49.9
		s27.8,8,49.9,30.1c6.9,6.9,13,13.9,17.9,20.3C560.9,105.8,563,113.9,565.5,119.2z"/>
	<path class="st1" d="M563,125.4c-5.4,1.8-12.7,6-20.8,12.2l0,0c-8,1.1-17.3,1.7-27.2,1.7c-31.2,0-56.5-14-56.5-14s25.3-14,56.5-14
		c9.9,0,19.3,0.6,27.4,1.7C550.3,119.3,557.6,123.6,563,125.4z"/>
	<path class="st1" d="M565.3,131.8c-2.5,5.2-4.6,13.3-5.9,23.2c-5,6.5-11.1,13.6-18.2,20.6c-22.1,22.1-49.9,30.1-49.9,30.1
		s8-27.8,30.1-49.9c7-7,14.1-13.2,20.6-18.2l0,0C552,136.4,560.2,134.3,565.3,131.8z"/>
	<path class="st1" d="M585.7,182.2c0,31.2-14,56.5-14,56.5s-13.9-25.4-13.9-56.5c0-9.8,0.6-19.1,1.7-27.2
		c6.2-8.2,10.5-15.5,12.3-20.9c1.8,5.5,6,12.8,12.3,20.9C585,163.1,585.7,172.4,585.7,182.2z"/>
	<path class="st1" d="M651.9,205.7c0,0-27.8-8-49.9-30.1c-7-7-13.2-14.1-18.2-20.6c-1.3-9.6-3.3-17.5-5.7-22.7
		c5.2,2.5,13.5,4.5,23.6,5.9c6.3,4.9,13.1,10.8,20,17.7C643.9,178,651.9,205.7,651.9,205.7z"/>
	<path class="st1" d="M684.9,125.9c0,0-25.3,14-56.5,14c-9.6,0-18.6-0.6-26.5-1.7c-8.4-6.5-16-10.9-21.6-12.7
		c5.2-1.7,12.4-5.8,20.3-11.8l0,0c8.2-1.1,17.7-1.8,27.9-1.8C659.6,111.9,684.9,125.9,684.9,125.9z"/>
	<path class="st1" d="M651.9,45.2c0,0-8,27.8-30.1,49.9c-7.3,7.3-14.6,13.6-21.3,18.7l0,0c-9.6,1.4-17.4,3.4-22.4,5.7
		c2.6-5.2,4.7-13.6,6.1-23.9c4.9-6.5,11-13.4,17.9-20.3C624.2,53.2,651.9,45.2,651.9,45.2z"/>
</g>
<g>
	<path class="st2" d="M611.4,86.9c-2.7,0.5-5.3,1.3-7.9,2.4c-8.8,3.7-16.3,8.5-21.9,13.7c-0.2-7.7-2.2-16.5-5.8-25.4
		c-1-2.5-2.3-4.8-3.7-7C583.3,53.4,605.2,46,605.2,46S615.5,66.8,611.4,86.9z"/>
	<path class="st2" d="M572,70.5c-1.4,2.2-2.7,4.5-3.7,7c-3.6,8.8-5.5,17.4-5.8,25c-5.6-5.2-13.1-10.1-21.9-13.7
		c-2.7-1.1-5.3-1.9-8-2.4c-3.8-19.9,6.3-40.2,6.3-40.2S560.7,53.5,572,70.5z"/>
	<path class="st2" d="M548.2,115.9c-7.5,0.3-16.2,2.2-24.9,5.8c-2.5,1.1-4.9,2.4-7.1,3.8c-16.7-11.4-24-32.9-24-32.9
		s20.4-10.1,40.3-6.3c0.5,2.7,1.3,5.4,2.4,8C538.5,103,543.1,110.4,548.2,115.9z"/>
	<path class="st2" d="M548.5,135.4c-5.1,5.5-9.8,12.9-13.4,21.6c-1.1,2.6-1.9,5.2-2.4,7.9c-20,4.1-40.8-6.2-40.8-6.2
		s7.3-21.8,24.3-33.1c2.3,1.6,4.7,2.9,7.4,4C532.3,133.1,540.9,135,548.5,135.4z"/>
	<path class="st2" d="M571.8,181.3C560.4,198,539,205.3,539,205.3s-10.1-20.5-6.3-40.4c2.5-0.5,5-1.3,7.5-2.3
		c8.8-3.6,16.2-8.4,21.8-13.6c0.3,7.5,2.2,16.2,5.8,25C568.9,176.6,570.3,179,571.8,181.3z"/>
	<path class="st2" d="M651.8,93.1c0,0-7.3,21.5-23.9,32.8c-2.4-1.7-5-3.1-7.7-4.2c-8.5-3.5-17-5.5-24.5-5.8
		c5.1-5.5,9.8-13,13.4-21.6c1-2.4,1.7-5,2.3-7.5C631.4,83,651.8,93.1,651.8,93.1z"/>
	<path class="st2" d="M604.7,205.3c0,0-21.6-7.3-32.9-24c1.6-2.3,2.9-4.8,4.1-7.5c3.5-8.5,5.5-17.1,5.8-24.6
		c5.5,5.1,12.9,9.8,21.6,13.4c2.5,1.1,5.1,1.8,7.8,2.3C614.8,184.9,604.7,205.3,604.7,205.3z"/>
	<path class="st2" d="M651.6,158.7c0,0-20.6,10.2-40.6,6.3c-0.5-2.7-1.3-5.3-2.4-7.9c-3.5-8.4-8-15.7-13-21.2
		c7.5-0.3,16.1-2.2,24.8-5.8c2.7-1.1,5.2-2.5,7.5-4.1C644.4,137.4,651.6,158.7,651.6,158.7z"/>
</g>
<polygon class="st3" points="590.6,79.3 572,109.1 551.2,79.3 560.7,114.4 523.3,106.5 555.9,125.7 523.3,145.1 560.7,137.1 
	551.2,172.2 572,141.9 590.6,172.2 583.8,137.1 618.5,145.1 588.6,125.7 618.5,106.5 583.4,114.4 "/>
<polygon class="st4" points="571.9,63.4 569.4,118.8 528.3,81 566.1,122.9 510.2,125.4 565.3,127.9 528.7,167.8 569.4,131.6 
	571.9,186.7 574.3,132 614.6,168.5 578,127.9 632.7,125.4 578.8,122.6 615.4,81.8 574.8,118.8 "/>
<polygon class="st5" points="585.1,92.7 572.2,113.9 557.7,92.7 564.3,117.7 538.3,112.1 561,125.8 538.3,139.5 564.3,133.8 
	557.7,159 572.2,137.3 585.1,159 580.4,133.8 604.6,139.5 583.7,125.8 604.6,112.1 580.1,117.7 "/>
<path class="st6" d="M473.6,29"/>
<g>
	<path class="st7" d="M119.9,100c-0.1,12.4-2,25.4-11.4,33.9c-9.3,8.4-23.7,14.9-36.5,14.9l-40.8-0.2v56L0,204.3v-152h67.7
		c15,0,27.5,4.5,37.5,13.5C115.2,74.9,120.1,86.3,119.9,100z M91.7,97.5c-0.4-4.5-3.2-9.3-7.5-12.8c-3.9-3.1-15.2-5.8-24.6-5.8
		l-28.5-0.4l0.7,42.5h29c9.8,0,20.4,0.1,26-7C91.2,108.4,92.2,103,91.7,97.5z"/>
	<path class="st7" d="M275.4,202.7h-34.3l-22.3-46.1l-70,0.6l-21.1,45.5h-33l71.5-152.2h36.3L275.4,202.7z M208.2,128.5l-23.3-53.7
		l-23.3,53.8L208.2,128.5z"/>
	<path class="st7" d="M423.3,126c0,20.8-7.5,38.7-22.4,53.5c-14.9,14.9-32.8,22.3-53.5,22.3l-62.7,0.8l-1.7-152.7h56.8
		c24.2,0,44.2,7.3,59.8,21.7C415.5,86.1,423.3,104.2,423.3,126z M394.5,124.6c-0.4-16.9-9.1-27.7-13.9-33.5
		c-11-13.3-20.3-14.2-37.9-14.2h-30.1v96.3l33.2-0.5c17.2,0,22.5-1.9,35.4-13.5C388.2,153.2,395.1,142,394.5,124.6z"/>
</g>
<g>
	<path class="st8" d="M804.6,158.6c0.1,12.4-4.2,22.9-13.1,31.7c-8.9,8.8-19.7,13.1-32.3,13.1s-23.3-4.3-32.2-13.1
		c-8.8-8.7-13.3-19.5-13.4-32.6h15.9c-0.1,8.3,2.7,15.6,8.5,21.7c5.7,6.1,12.7,9.2,20.9,9.3c8.5,0.1,15.9-2.8,22-8.7
		c6.1-6,9.1-13.1,8.8-21.8c-0.4-14.1-9.7-24-27.9-29.7l-16.2-5c-8.5-2.7-15.2-7.2-20-13.7c-4.7-6.5-7.2-14.4-7.3-23.4
		c-0.1-11.2,4-20.8,12.4-28.6c8.4-7.8,18.4-11.7,29.8-11.6c11.4,0.1,21,4.2,28.9,12.4s11.9,17.8,11.9,29.2h-15.9
		c0.1-7.2-2.2-13.4-7-18.5s-10.7-8-17.6-8.3c-7.3-0.4-13.8,2-19.4,7.3c-5.6,5.2-8.3,11.5-8,18.8c0.3,11.9,6,19.6,17.4,23.2l18.4,5.7
		C792.4,123.4,804.3,137.6,804.6,158.6z"/>
	<path class="st8" d="M977.9,88.1l-42.3,112.7H918l-24.5-74.6l-23,74.6h-17.4L810.5,88.1h15.9l35.1,93.8l26.1-80.2h12.9l25.6,79.5
		l35.6-93L977.9,88.1L977.9,88.1z"/>
	<path class="st8" d="M1091.2,144.2v0.8v55.8h-15v-17.6c-12.2,13.9-27.2,20.7-44.9,20.1c-15.4-0.5-28.7-6.5-39.6-18
		c-10.9-11.5-16.3-25.1-16.3-40.9c0-16.5,5.9-30.6,17.6-42.4c11.7-11.8,25.7-17.4,42.1-16.7c15.8,0.5,29.2,6.5,40.3,18.1
		C1086.5,115,1091.7,128.5,1091.2,144.2z M1076.2,143.1c-0.3-11.9-4.5-22.1-12.6-30.5c-8.2-8.5-18-12.6-29.5-12.6
		c-12,0-22.3,4.2-30.7,12.6c-8.5,8.5-12.7,18.7-12.9,30.7c-0.3,11.9,3.7,22.3,11.8,31.2c8.1,8.9,17.9,13.7,29.4,14.2
		c12.4,0.5,23-3.8,31.8-13C1072.2,166.5,1076.5,155.7,1076.2,143.1z"/>
	<path class="st8" d="M1223,144.2c0,16.5-5.9,30.6-17.6,42.4c-11.7,11.8-25.7,17.4-41.9,16.9c-16.6-0.6-30.5-7.3-41.7-20v56.7h-14.7
		v-95c0-0.4,0-0.6,0-0.8c0-16.2,5.9-30.2,17.7-42c11.8-11.8,25.8-17.4,42-16.9c15.7,0.4,29,6.3,39.8,17.8
		C1217.6,114.8,1223,128.4,1223,144.2z M1208,145.4c0.1-11.9-3.8-22.3-11.9-31.3c-8-8.9-18-13.6-29.6-14
		c-12.4-0.6-23.1,3.7-31.8,12.9c-8.8,9.3-13.1,20.1-12.8,32.5c0.3,11.9,4.5,22.1,12.7,30.5c8.2,8.5,18.1,12.7,29.7,12.7
		c11.9,0,22.1-4.2,30.5-12.7C1203.4,167.7,1207.8,157.5,1208,145.4z"/>
</g>
</svg>
