<?xml version="1.0" encoding="utf-8"?>
<!-- Generator: Adobe Illustrator 21.0.0, SVG Export Plug-In . SVG Version: 6.00 Build 0)  -->
<svg version="1.1" id="Layer_3" xmlns="http://www.w3.org/2000/svg" xmlns:xlink="http://www.w3.org/1999/xlink" x="0px" y="0px"
	 viewBox="0 0 1236.3 256" style="enable-background:new 0 0 1236.3 256;" height="256" xml:space="preserve">
<style type="text/css">
	.st0{fill:#D91377;}
	.st1{fill:#53CBC8;}
</style>
<g id="Layer_1">
	<path d="M703.2,128c0,70.7-57.3,128-128,128c-23.5,0-45.9-5.9-64.6-17.5c-7.2-4.4-9.7-8.9-6.8-15.1c6.8-14.5,71.2-96.7,70.7-96.8
		c0,0-65,52.2-94.3,71c-8.6,5.6-12.1,0.1-12.5-0.4c-9.6-12.5-20.5-45.5-20.5-69.2C447.3,57.3,504.6,0,575.2,0
		C645.9,0,703.2,57.3,703.2,128z"/>
</g>
<g id="Layer_3-2">
	<path class="st0" d="M588.8,69.6c0,9-0.5,18-1.7,26.9c-6.2,8.1-10.6,15.5-12.5,21c-2-5.5-6.2-12.8-12.4-20.8
		c-1.2-9-1.7-18.1-1.7-27.2c0-31.5,14.2-57.2,14.2-57.2S588.8,38.1,588.8,69.6z"/>
	<path class="st0" d="M568.2,120.5c-5.2-2.5-13.4-4.6-23.4-6c-7.3-5.6-14.2-11.7-20.6-18.2c-22.3-22.3-30.4-50.4-30.4-50.4
		s28.1,8.1,50.4,30.4c6.5,6.4,12.6,13.3,18.1,20.6C563.6,106.9,565.7,115.2,568.2,120.5z"/>
	<path class="st0" d="M544.6,139.1"/>
	<path class="st0" d="M460,126.7c0,0,25.6-14.2,57.2-14.2c9.3,0,18.5,0.6,27.7,1.7c8.1,6.3,15.4,10.7,20.8,12.5"/>
	<path class="st0" d="M583.2,126.9c5.3-1.7,12.5-5.9,20.5-11.9l0,0c9.3-1.2,18.8-1.9,28.2-1.8c31.5-0.1,57.1,14.1,57.1,14.1"/>
	<path class="st0" d="M655.6,45.7c0,0-8.1,28.1-30.4,50.4c-6.7,6.8-13.9,13.1-21.5,18.9l0,0c-9.7,1.4-17.6,3.4-22.7,5.8
		c2.6-5.3,4.8-13.7,6.2-24.2c5.6-7.2,11.6-14.1,18.1-20.6C627.6,53.8,655.6,45.7,655.6,45.7z"/>
</g>
<g id="Layer_4">
	<path class="st1" d="M614.7,87.8c-2.7,0.5-5.4,1.3-8,2.4c-8.1,3.3-15.6,8-22.2,13.8c-0.2-7.8-2.2-16.7-5.9-25.7
		c-1-2.5-2.3-4.8-3.8-7c11.4-17.3,33.6-24.8,33.6-24.8S618.8,67.5,614.7,87.8z"/>
	<path class="st1" d="M574.9,71.2c-1.5,2.2-2.8,4.6-3.8,7c-3.6,8.9-5.6,17.6-5.9,25.3c-5.7-5.3-13.3-10.2-22.2-13.9
		c-2.6-1.1-5.3-1.9-8.1-2.4c-3.8-20.1,6.4-40.7,6.4-40.7S563.5,54,574.9,71.2z"/>
	<path class="st1" d="M550.8,117.1c-7.6,0.3-16.4,2.3-25.2,5.9c-2.5,1.1-4.9,2.4-7.2,3.8c-16.9-11.5-24.3-33.3-24.3-33.3
		s20.6-10.2,40.7-6.3c0.5,2.8,1.3,5.5,2.4,8.1C540.9,104.1,545.7,111.6,550.8,117.1z"/>
	<path class="st1" d="M655.5,94.1c0,0-7.3,21.7-24.2,33.2c-2.4-1.7-5-3.1-7.8-4.3c-7.9-3.3-16.2-5.3-24.8-5.9
		c5.7-6.5,10.3-13.8,13.6-21.9c1-2.4,1.8-5,2.3-7.6C634.8,83.9,655.5,94.1,655.5,94.1z"/>
</g>
<g id="Layer_5">
	<polyline class="st1" points="591.6,127.1 621.8,107.7 586.3,115.6 593.7,80.2 574.9,110.3 553.8,80.2 563.4,115.6 525.6,107.7 
		558.5,127.1 	"/>
	<path class="st1" d="M574.9,143.4"/>
	<path class="st1" d="M563.4,138.6"/>
</g>
<g id="Layer_6">
	<polyline points="580.9,129.3 636.2,126.8 581.8,123.9 618.7,82.7 577.6,120.1 574.7,64.1 572.2,120.1 530.6,81.9 568.9,124.3 
		512.3,126.8 568,129.3 	"/>
	<path d="M572.2,133"/>
</g>
<g id="Layer_7">
	<polyline points="586.7,127.2 607.8,113.3 583,119 588.1,93.7 575,115.2 560.3,93.7 567,119 540.7,113.3 563.7,127.2 	"/>
	<path d="M583.3,135.3"/>
	<path d="M575,138.8"/>
	<path d="M567,135.3"/>
</g>
<g id="Layer_8">
	<circle class="st0" cx="506.1" cy="140.2" r="4.2"/>
	<path class="st0" d="M661.5,140.5"/>
	<path class="st0" d="M552.1,144.4H518c-2.3-0.8-3.5-3.3-2.7-5.7c0.4-1.3,1.5-2.3,2.7-2.7h44.7"/>
	<path class="st0" d="M542.6,168.7h100.1c2.3,1,3.4,3.6,2.4,6c-0.5,1.1-1.3,2-2.4,2.4H536.3"/>
	<path class="st0" d="M529.8,185.8h17.6c2.3,1,3.4,3.7,2.4,6c-0.5,1.1-1.3,2-2.4,2.4h-23.8"/>
	<path class="st0" d="M560,193.5c-2.3-0.8-3.5-3.3-2.7-5.7c0.4-1.3,1.4-2.3,2.7-2.7h103.7c2.3,1,3.4,3.7,2.4,6
		c-0.5,1.1-1.3,2-2.4,2.4H560z"/>
	<path class="st0" d="M580.6,209.9c-2.3-0.8-3.5-3.4-2.7-5.7c0.4-1.3,1.4-2.3,2.7-2.7h63.7c2.3,1,3.4,3.6,2.4,6
		c-0.5,1.1-1.3,2-2.4,2.4H580.6z"/>
	<path class="st0" d="M541.6,226.5c-2.3-0.8-3.5-3.3-2.7-5.7c0.4-1.3,1.5-2.3,2.7-2.7h65.2c2.3,1,3.4,3.6,2.4,6
		c-0.5,1.1-1.3,2-2.4,2.4H541.6z"/>
	<path class="st0" d="M554.7,152.7h37.9c2.3,1,3.4,3.6,2.4,6c-0.5,1.1-1.3,2-2.4,2.4h-44"/>
	<circle class="st0" cx="478" cy="156.9" r="4.2"/>
	<circle class="st0" cx="506.1" cy="172.9" r="4.2"/>
	<circle class="st0" cx="483.9" cy="190" r="4.2"/>
	<circle class="st0" cx="568.2" cy="205.8" r="4.2"/>
	<circle class="st0" cx="529.9" cy="222.4" r="4.2"/>
	<path class="st0" d="M530.5,161.1h-40.9c-2.3-0.8-3.5-3.4-2.7-5.7c0.4-1.3,1.4-2.3,2.7-2.7h51.9"/>
	<path class="st0" d="M567.5,136h90.9c2.3,1,3.4,3.6,2.4,6c-0.5,1.1-1.3,2-2.4,2.4h-97.1"/>
</g>
<path class="st0" d="M121.2,104.8c-0.1,12.5-2,25.7-11.5,34.3c-9.4,8.6-24,15.1-36.9,15.1L31.6,154v56.6L0,210.2V56.6h68.5
	c15.2,0,27.8,4.6,37.9,13.7C116.5,79.4,121.4,90.9,121.2,104.8z M92.7,102.3c-0.4-4.6-3.3-9.4-7.6-12.9c-3.9-3.1-15.4-5.9-24.8-5.9
	l-28.8-0.4l0.7,42.9h29.3c9.9,0,20.6,0.1,26.3-7.1C91.6,114.2,93.4,108.2,92.7,102.3L92.7,102.3z"/>
<path class="st0" d="M278.4,208.6h-34.6L221.2,162l-70.8,0.6l-21.3,46H95.8l72.3-153.8h36.7L278.4,208.6z M210.5,133.6l-23.5-54.3
	l-23.5,54.4L210.5,133.6z"/>
<path class="st0" d="M427.9,131.1c0,21.1-7.6,39.1-22.7,54.1c-15.1,15-33.1,22.5-54,22.6l-63.4,0.8l-1.7-154.4h57.4
	c24.5,0,44.6,7.3,60.5,21.9C419.9,90.7,427.9,109.1,427.9,131.1z M398.8,129.7c-0.4-17.1-9.2-28-14-33.8
	c-11.1-13.4-20.6-14.3-38.3-14.3h-30.4v97.4l33.6-0.5c17.4,0,22.7-1.9,35.8-13.7C392.4,158.6,399.4,147.2,398.8,129.7L398.8,129.7z"
	/>
<path class="st1" d="M813.3,164.1c0.1,12.5-4.3,23.2-13.3,32c-9,8.9-19.9,13.3-32.7,13.3c-12.8,0-23.6-4.4-32.5-13.2
	c-8.9-8.9-13.4-19.8-13.6-33h16.1c-0.3,8.2,2.8,16.1,8.6,21.9c5.4,6,13.1,9.4,21.1,9.4c8.3,0.3,16.3-2.9,22.2-8.8
	c6.1-5.7,9.3-13.7,8.9-22c-0.4-14.2-9.8-24.2-28.2-30l-16.3-5.1c-8.6-2.7-15.4-7.3-20.2-13.9c-4.8-6.6-7.3-14.5-7.4-23.7
	c-0.1-11.3,4.1-21,12.6-28.9c8.1-7.8,18.9-12,30.1-11.7c11.5,0.1,21.2,4.3,29.2,12.5c7.8,7.8,12.2,18.4,12,29.5h-16.1
	c0.2-6.9-2.3-13.7-7-18.7c-4.5-5.1-11-8.1-17.8-8.4c-7.4-0.4-13.9,2-19.6,7.3s-8.4,11.6-8.1,19c0.3,12.1,6.1,19.8,17.6,23.5
	l18.6,5.8C801.1,128.4,813,142.8,813.3,164.1z"/>
<path class="st1" d="M988.5,92.7l-42.8,113.9H928l-24.8-75.4L880,206.6h-17.6L819.3,92.7h16l35.5,94.8l26.4-81h13l25.9,80.3l35.9-94
	L988.5,92.7L988.5,92.7z"/>
<path class="st1" d="M1103.1,149.5v57.2h-15.2v-17.8c-12.3,14.1-27.5,20.9-45.4,20.3c-15.6-0.5-29-6.6-40-18.2
	c-11-11.5-16.5-25.3-16.5-41.3c0-16.6,5.9-30.9,17.8-42.8c11.8-11.9,26-17.6,42.6-16.8c16,0.5,29.6,6.6,40.7,18.3
	S1103.6,133.7,1103.1,149.5z M1087.9,148.4c-0.3-12-4.5-22.3-12.8-30.8s-18.2-12.8-29.8-12.8c-12.1,0-22.5,4.3-31,12.8
	c-8.5,8.5-12.9,18.9-13,31c-0.3,12,3.7,22.5,11.9,31.5c8.2,9,18.1,13.8,29.7,14.3c12.6,0.5,23.3-3.9,32.1-13.1
	C1083.8,172,1088.2,161.1,1087.9,148.4z"/>
<path class="st1" d="M1236.3,149.5c0,16.6-5.9,30.9-17.8,42.8c-11.8,11.9-26,17.6-42.3,17.1c-16.8-0.7-30.8-7.4-42.1-20.2v57.3
	h-14.8v-96.8c0-16.3,6-30.5,17.9-42.4c11.9-11.9,26-17.6,42.4-17.1c15.8,0.4,29.2,6.4,40.2,18
	C1230.8,119.8,1236.3,133.5,1236.3,149.5z M1221.1,150.7c0.3-11.7-4-23.1-12.1-31.6c-8.1-9-18.2-13.7-29.9-14.2
	c-12.6-0.7-23.3,3.7-32.2,13.1c-8.9,9.4-13.2,20.3-12.9,32.9c0.3,12.1,4.6,22.3,12.9,30.9c8.3,8.5,18.3,12.8,30.1,12.9
	c11.6,0.2,22.8-4.5,30.9-12.9C1216.3,173.6,1221.1,162.4,1221.1,150.7z"/>
</svg>
