<?xml version="1.0" encoding="utf-8"?>
<!-- Generator: Adobe Illustrator 21.0.0, SVG Export Plug-In . SVG Version: 6.00 Build 0)  -->
<svg version="1.1" id="Layer_1" xmlns="http://www.w3.org/2000/svg" xmlns:xlink="http://www.w3.org/1999/xlink" x="0px" y="0px"
	 viewBox="0 0 1236.3 256" style="enable-background:new 0 0 1236.3 256;" height="256" xml:space="preserve">
<style type="text/css">
	.st0{fill:none;stroke:#000000;stroke-miterlimit:10;}
	.st1{fill:#55C8C5;}
	.st2{fill:#F2B705;}
	.st3{fill:#0E122F;}
</style>
<path class="st0" d="M478.7,32.2"/>
<path class="st1" d="M121.2,104c-0.1,12.5-2,25.7-11.5,34.3c-9.4,8.6-24,15.1-36.9,15.1l-41.3-0.2v56.6L0,209.4V55.8h68.5
	c15.2,0,27.8,4.6,37.9,13.7C116.5,78.6,121.4,90.1,121.2,104z M92.7,101.5c-0.4-4.6-3.3-9.4-7.6-12.9c-3.9-3.1-15.4-5.9-24.8-5.9
	l-28.8-0.4l0.7,42.9h29.3c9.9,0,20.6,0.1,26.3-7.1C91.6,113.4,93.4,107.4,92.7,101.5L92.7,101.5z"/>
<path class="st1" d="M278.4,207.8h-34.6l-22.5-46.6l-70.8,0.6l-21.3,46H95.8L168.1,54h36.7L278.4,207.8z M210.5,132.8l-23.5-54.3
	L163.4,133L210.5,132.8z"/>
<path class="st1" d="M427.9,130.3c0,21.1-7.6,39.1-22.7,54.1c-15.1,15-33.1,22.5-54,22.6l-63.4,0.8l-1.7-154.4h57.4
	c24.5,0,44.6,7.3,60.5,21.9C419.9,89.9,427.9,108.3,427.9,130.3z M398.8,128.9c-0.4-17.1-9.2-28-14-33.8
	c-11.1-13.4-20.6-14.3-38.3-14.3h-30.4v97.4l33.6-0.5c17.4,0,22.7-1.9,35.8-13.7C392.4,157.8,399.4,146.4,398.8,128.9L398.8,128.9z"
	/>
<path class="st2" d="M813.3,163.3c0.1,12.5-4.3,23.2-13.3,32c-9,8.9-19.9,13.3-32.7,13.3c-12.8,0-23.6-4.4-32.5-13.2
	c-8.9-8.9-13.4-19.8-13.6-33h16.1c-0.3,8.2,2.8,16.1,8.6,21.9c5.4,6,13.1,9.4,21.1,9.4c8.3,0.3,16.3-2.9,22.2-8.8
	c6.1-5.7,9.3-13.7,8.9-22c-0.4-14.2-9.8-24.2-28.2-30l-16.3-5.1c-8.6-2.7-15.4-7.3-20.2-13.9c-4.8-6.6-7.3-14.5-7.4-23.7
	c-0.1-11.3,4.1-21,12.6-28.9c8.1-7.8,18.9-12,30.1-11.7c11.5,0.1,21.2,4.3,29.2,12.5c7.8,7.8,12.2,18.4,12,29.5h-16.1
	c0.2-6.9-2.3-13.7-7-18.7c-4.5-5.1-11-8.1-17.8-8.4c-7.4-0.4-13.9,2-19.6,7.3s-8.4,11.6-8.1,19c0.3,12.1,6.1,19.8,17.6,23.5
	l18.6,5.8C801.1,127.6,813,142,813.3,163.3z"/>
<path class="st2" d="M988.5,91.9l-42.8,113.9H928l-24.8-75.4L880,205.8h-17.6L819.3,91.9h16l35.5,94.8l26.4-81h13l25.9,80.3l35.9-94
	L988.5,91.9L988.5,91.9z"/>
<path class="st2" d="M1103.1,148.7v57.2h-15.2V188c-12.3,14.1-27.5,20.9-45.4,20.3c-15.6-0.5-29-6.6-40-18.2
	c-11-11.5-16.5-25.3-16.5-41.3c0-16.6,5.9-30.9,17.8-42.8c11.8-11.9,26-17.6,42.6-16.8c16,0.5,29.6,6.6,40.7,18.3
	S1103.6,132.9,1103.1,148.7z M1087.9,147.6c-0.3-12-4.5-22.3-12.8-30.8s-18.2-12.8-29.8-12.8c-12.1,0-22.5,4.3-31,12.8
	c-8.5,8.5-12.9,18.9-13,31c-0.3,12,3.7,22.5,11.9,31.5c8.2,9,18.1,13.8,29.7,14.3c12.6,0.5,23.3-3.9,32.1-13.1
	C1083.8,171.2,1088.2,160.3,1087.9,147.6z"/>
<path class="st2" d="M1236.3,148.7c0,16.6-5.9,30.9-17.8,42.8c-11.8,11.9-26,17.6-42.3,17.1c-16.8-0.7-30.8-7.4-42.1-20.2v57.3
	h-14.8v-96.8c0-16.3,6-30.5,17.9-42.4c11.9-11.9,26-17.6,42.4-17.1c15.8,0.4,29.2,6.4,40.2,18C1230.8,119,1236.3,132.7,1236.3,148.7
	z M1221.1,149.9c0.3-11.7-4-23.1-12.1-31.6c-8.1-9-18.2-13.7-29.9-14.2c-12.6-0.7-23.3,3.7-32.2,13.1c-8.9,9.4-13.2,20.3-12.9,32.9
	c0.3,12.1,4.6,22.3,12.9,30.9c8.3,8.5,18.3,12.8,30.1,12.9c11.6,0.2,22.8-4.5,30.9-12.9C1216.3,172.9,1221.1,161.6,1221.1,149.9z"/>
<g id="Layer_1-2">
	<path class="st3" d="M703.2,128c0,70.7-57.3,128-128,128c-23.5,0-45.9-5.9-64.6-17.5c-7.2-4.4-9.7-8.9-6.8-15.1
		c6.8-14.5,71.2-96.7,70.7-96.8c0,0-65,52.2-94.3,71c-8.6,5.6-12.1,0.1-12.5-0.4c-9.6-12.5-20.5-45.5-20.5-69.2
		c0-70.7,57.3-128,128-128C645.9,0,703.2,57.3,703.2,128z"/>
</g>
<g id="Layer_3">
	<path class="st1" d="M588.8,69.6c0,9-0.5,18-1.7,26.9c-6.2,8.1-10.6,15.5-12.5,21c-2-5.5-6.2-12.8-12.4-20.8
		c-1.2-9-1.7-18.1-1.7-27.2c0-31.5,14.2-57.2,14.2-57.2S588.8,38.1,588.8,69.6z"/>
	<path class="st1" d="M568.2,120.5c-5.2-2.5-13.4-4.6-23.4-6c-7.3-5.6-14.2-11.7-20.6-18.2c-22.3-22.3-30.4-50.4-30.4-50.4
		s28.1,8.1,50.4,30.4c6.5,6.4,12.6,13.3,18.1,20.6C563.6,106.9,565.7,115.2,568.2,120.5z"/>
	<path class="st1" d="M565.7,126.8c-5.4,1.8-12.9,6.1-21.1,12.3l0,0c-9.1,1.2-18.3,1.8-27.5,1.7c-31.5,0-57.2-14.2-57.2-14.2
		s25.6-14.2,57.2-14.2c9.3,0,18.5,0.6,27.7,1.7C552.9,120.6,560.3,125,565.7,126.8z"/>
	<path class="st1" d="M604.8,171.8c-6.6-6.5-12.3-7.8-18-15.1c-1.3-9.7-3.3-17.7-5.7-22.9c5.3,2.5,13.7,4.6,23.8,6
		c7.1,5.5,13.8,11.5,20.2,17.9"/>
	<path class="st1" d="M688.9,127.2c0,0-25.6,14.2-57.2,14.2c-9,0-17.9-0.5-26.8-1.7c-8.5-6.5-16.2-11-21.8-12.9
		c5.3-1.7,12.5-5.9,20.5-11.9l0,0c9.3-1.2,18.8-1.9,28.2-1.8C663.4,113.1,688.9,127.2,688.9,127.2z"/>
	<path class="st1" d="M655.6,45.7c0,0-8.1,28.1-30.4,50.4c-6.7,6.8-13.9,13.1-21.5,18.9l0,0c-9.7,1.4-17.6,3.4-22.7,5.8
		c2.6-5.3,4.8-13.7,6.2-24.2c5.6-7.2,11.6-14.1,18.1-20.6C627.6,53.8,655.6,45.7,655.6,45.7z"/>
</g>
<g id="Layer_4">
	<path class="st2" d="M614.7,87.8c-2.7,0.5-5.4,1.3-8,2.4c-8.1,3.3-15.6,8-22.2,13.8c-0.2-7.8-2.2-16.7-5.9-25.7
		c-1-2.5-2.3-4.8-3.8-7c11.4-17.3,33.6-24.8,33.6-24.8S618.8,67.5,614.7,87.8z"/>
	<path class="st2" d="M574.9,71.2c-1.5,2.2-2.8,4.6-3.8,7c-3.6,8.9-5.6,17.6-5.9,25.3c-5.7-5.3-13.3-10.2-22.2-13.9
		c-2.6-1.1-5.3-1.9-8.1-2.4c-3.8-20.1,6.4-40.7,6.4-40.7S563.5,54,574.9,71.2z"/>
	<path class="st2" d="M550.8,117.1c-7.6,0.3-16.4,2.3-25.2,5.9c-2.5,1.1-4.9,2.4-7.2,3.8c-16.9-11.5-24.3-33.3-24.3-33.3
		s20.6-10.2,40.7-6.3c0.5,2.8,1.3,5.5,2.4,8.1C540.9,104.1,545.7,111.6,550.8,117.1z"/>
	<path class="st2" d="M655.5,94.1c0,0-7.3,21.7-24.2,33.2c-2.4-1.7-5-3.1-7.8-4.3c-7.9-3.3-16.2-5.3-24.8-5.9
		c5.7-6.5,10.3-13.8,13.6-21.9c1-2.4,1.8-5,2.3-7.6C634.8,83.9,655.5,94.1,655.5,94.1z"/>
	<path class="st2" d="M655.3,160.4c0,0-20.8,10.3-41,6.3c-0.5-2.7-1.3-5.4-2.4-8c-3.2-7.8-7.6-15.1-13.1-21.4
		c7.6-0.3,16.3-2.3,25.1-5.9c2.7-1.1,5.2-2.5,7.6-4.1C648.1,138.9,655.3,160.4,655.3,160.4z"/>
</g>
<g id="Layer_5">
	<polygon class="st2" points="593.7,80.2 574.9,110.3 553.8,80.2 563.4,115.6 525.6,107.7 558.5,127.1 540.7,141 563.4,138.6 
		563.5,148.7 574.9,143.4 588.1,160.7 586.8,138.6 621.8,146.6 591.6,127.1 621.8,107.7 586.3,115.6 	"/>
</g>
<g id="Layer_6">
	<polygon class="st3" points="574.7,64.1 572.2,120.1 530.6,81.9 568.9,124.3 512.3,126.8 568,129.3 556.9,141.4 572.2,133 
		574.7,188.7 577.2,133.4 617.9,170.4 580.9,129.3 636.2,126.8 581.8,123.9 618.7,82.7 577.6,120.1 	"/>
</g>
<g id="Layer_7">
	<polygon class="st3" points="588.1,93.7 575,115.2 560.3,93.7 567,119 540.7,113.3 563.7,127.2 540.7,141 567,135.3 560.3,160.7 
		575,138.8 588.1,160.7 583.3,135.3 607.8,141 586.7,127.2 607.8,113.3 583,119 	"/>
</g>
<g id="Layer_9">
	<path class="st3" d="M473.2,149.8c-1.9,1.3-6.4,0.8-8.4-1.6c-2.1-2.6-1.1-5.9,0.8-8.1c7.3-7,15.9-12.7,25.2-16.7
		c10.6-3.9,21.7-6.2,33-6.7c57.6-2,59.4,32.4,104.2,38.3c21.6,2.9,35.5-7.9,43.6-16.6c2.9-1.5,6.5-0.2,8.7,1.8c2,2.1,2,5.4,0,7.5
		c-11.6,10.6-22.1,22.1-53.2,19.9c-39.7-2.8-45.3-42.1-102.8-38.3c-11.9,0.8-20.6,2.9-29.1,7C485.1,141.2,484.4,142.2,473.2,149.8z"
		/>
</g>
<g id="Layer_8">
	<path class="st1" d="M505.9,179.4v-20.7c1.3-3.6,5.2-5.5,8.7-4.2c2,0.7,3.5,2.2,4.2,4.2V170"/>
	<path class="st1" d="M480.4,197.6v-25.4c1.3-3.6,5.2-5.5,8.7-4.2c2,0.7,3.5,2.2,4.2,4.2v16.4"/>
	<path class="st1" d="M544.4,166.3v76.8c-1.5,3.6-5.6,5.2-9.2,3.7c-1.7-0.7-3-2.1-3.7-3.7v-59.6"/>
	<path class="st1" d="M556.4,169.4c1.3-3.6,5.2-5.5,8.7-4.2c2,0.7,3.5,2.2,4.2,4.2v47.9c-1.5,3.6-5.6,5.2-9.2,3.7
		c-1.7-0.7-3-2.1-3.7-3.7V169.4z"/>
	<path class="st1" d="M581,184c1.3-3.6,5.2-5.5,8.7-4.2c2,0.7,3.5,2.2,4.2,4.2v15.9c-1.5,3.6-5.6,5.2-9.2,3.7
		c-1.7-0.7-3-2.1-3.7-3.7V184z"/>
	<path class="st1" d="M606.8,193.3c1.3-3.6,5.2-5.4,8.7-4.2c2,0.7,3.5,2.2,4.2,4.2v50c-1.5,3.6-5.6,5.2-9.2,3.7
		c-1.7-0.7-3-2.1-3.7-3.7V193.3z"/>
	<path class="st1" d="M632.3,196.2c1.3-3.6,5.2-5.5,8.7-4.2c2,0.7,3.5,2.2,4.2,4.2v36.3c-1.5,3.6-5.6,5.2-9.2,3.7
		c-1.7-0.7-3-2.1-3.7-3.7V196.2z"/>
	<path class="st1" d="M657.3,190.3c1.3-3.6,5.2-5.5,8.7-4.2c2,0.7,3.5,2.2,4.2,4.2v21.7c-1.5,3.6-5.6,5.3-9.2,3.8
		c-1.7-0.7-3-2.1-3.8-3.8V190.3z"/>
	<path class="st1" d="M478.7,162.3c-1.8,1.5-6.4,0.8-8.4-1.6c-2.1-2.6-1.1-5.9,0.8-8.1c7.3-7,15.8-12.7,25.2-16.7
		c10.5-3.9,21.6-6.2,32.9-6.7c57.5-2,55.4,38.5,104,38.3c21.7-0.1,35.4-7.9,43.5-16.6c2.9-1.5,6.5-0.2,8.6,1.8c2,2.1,2,5.4,0,7.5
		c-11.6,10.6-31.7,19.9-53,19.2c-51.2-1.7-51.3-38-102.6-37.6c-11.9,0.1-20.6,2.2-29,6.3C490.6,153,487.7,155,478.7,162.3z"/>
	<path class="st1" d="M518.8,201.1v23.7c-1.5,3.6-5.6,5.2-9.2,3.7c-1.7-0.7-3-2.1-3.7-3.7v-5"/>
</g>
</svg>
