<?xml version="1.0" encoding="utf-8"?>
<!-- Generator: Adobe Illustrator 21.0.0, SVG Export Plug-In . SVG Version: 6.00 Build 0)  -->
<svg version="1.1" id="Ebene_1" xmlns="http://www.w3.org/2000/svg" xmlns:xlink="http://www.w3.org/1999/xlink" x="0px" y="0px"
	 viewBox="0 0 603.3 697.4" style="enable-background:new 0 0 603.3 697.4;" height="256" xml:space="preserve">
<style type="text/css">
	.st0{fill:#F0B90B;}
	.st1{fill:#000100;}
	.st2{fill:#FAFAFA;}
	.st3{fill:#D9F1F0;}
	.st4{fill:#010302;}
	.st5{fill:#F9F9F9;}
</style>
<title>TOAD - BSC</title>
<path class="st0" d="M301.7,0L116.5,106.8l68.1,39.5L301.7,79l117.1,67.4l68.1-39.5L301.7,0z M418.8,202.1l36.7,45.6l31.4,72.8
	l-117.1,67.3v134.7L301.7,562l-68.1-39.5V387.8l-117.1-67.4l25-66.1l43.1-52.3l117.1,67.4L418.8,202.1z M486.9,376.3v78.9
	l-68.1,39.5v-78.9L486.9,376.3z M418.1,550.4L535.2,483V348.4l68.1-39.5v213.6L418.1,629.4V550.4z M535.2,213.6l-68.1-39.5
	l68.1-39.5l68.1,39.5V253l-68.1,39.5V213.6z M233.6,657.9V579l68.1,39.5l68.1-39.5v78.9l-68.1,39.5L233.6,657.9z M184.6,494.7
	l-68.1-39.5v-78.9l68.1,39.4V494.7z M136.2,174.2l-68.1,39.5v78.9L0,253.1v-78.9l68.1-39.5L136.2,174.2z M0,308.9l68.1,39.5v134.7
	l117.1,67.4v78.9L0,522.5V308.9z"/>
<g>
	<g>
		<path class="st1" d="M124,324.7c-5.7-3.3-8.3-3-8.6-8.8c-0.9-16.5,1.2-39.7,5.8-55.6c4.4-15.3,10.9-30,19.1-43.5
			c3.9-6.4,9.2-11.1,14.4-16.4c5.9-6,7.2-12.2,10.2-19.8c5.3-13.4,16.2-22.8,29.1-28.9c8.5-4,17.2-6.4,26.6-5.8
			c9.5,0.6,18.5,3.6,28.1,3.8c9.8,0.2,19.3-1.6,29.1-2.6c10.7-1,21.4-0.8,32.1,0.1c9.4,0.8,18.7,2.4,28,3.5
			c9.8,1.2,18.6-3.6,28.1-5.3c16.4,0,38.2-0.9,51.9,9.8c12.3,9.7,16.1,20.4,20.5,34.3c4.9,15.4,18.9,25.8,27.5,39.4
			c8.9,14,15.9,29.6,20.6,45.5c2.2,7.3,5.2,17.3,5.2,24.9c0,7.1,2.8,16.2-2.3,21.4c-3.8,3.9-14.3,7.1-19.4,9.4
			c-7.7,3.6-3.3,0.8-14.1,7.4c-5.8,3.5-11.4,7.3-19.1,11.8c-8.3,4.8-19.1,11-38.6,22.2c-16.5,9.5-24.8-46.4-43.8-46.3
			c-37.4,0.1-74.9-1.1-112.3-1.1c-18.8,0-45.2,42.6-61.1,33.4"/>
	</g>
</g>
<path class="st0" d="M469.9,330.2c-7.1,4.2-35.1,20.4-49,28.2c-5.4,3.1-2.9,2.4-7.3-17.6c-5.6-16.1-8.2-20.7-11.9-24.6
	c-8.6-8.8-18.9-15.9-29.8-21.5c-16.3-8.4-34-13-52.2-15.3c-14.4-1.9-28.9-2.2-43.3-2.5c-19.1-0.3-38.5-1.4-57.5,1.1
	c-20.6,2.7-40.4,11.1-53.3,27.9c-3.7,4.8-5.9,11.6-9.9,18.8c-3.3,16.3-1.9,16.7-7.2,13.8c-9.6-5.1-10.5-5.7-16.4-9.9
	c0.5-7.7,2-28.1,3.4-35.7c2.1-10.9,5.1-21.6,8.9-32c2.1-5.7,4.4-11.3,7-16.8c1.4-3,7-17.5,10.1-18.4c3.6-1,8.6,12.2,11.7,15.7
	c8.1,9.2,19.7,13.8,31.4,16.6c17.8,4.2,36.2,3.5,49.6-10.4c13.6-14.1,23-36.3,19.6-56.1c-0.8-4.9-2.4-9.6-4.8-13.9
	c-1.6-3-6.2-7.1-4.6-9.3c1.7-2.4,13.8-2.5,17-2.7c5.1-0.2,42.7-2.3,44.2,5.3c0.2,0.9-3.2,5.9-3.2,6.1c-2.5,5-4.5,10.2-6,15.6
	c-2.4,9.1-3.2,18.8-1.6,28.1c7.6,44.7,74.5,66.7,106.3,33.1c4-4.2,7.4-9.1,10.2-14.2c1-1.8,3.7-11.1,6-11.6
	c5.1-1.2,15.1,23.9,16.8,28c9.2,21.5,16.5,43.7,16.4,67.3"/>
<path class="st2" d="M425.4,210.4c0,0.4-0.1,1.1-0.1,1.9c0,0.2,0,0.5-0.1,0.7c-0.1,1.6-0.2,3.2-0.5,4.8c-0.7,5.7-2.5,11.3-5.2,16.4
	c-3.2,6-7.9,11.1-13.7,14.7c-3.1,1.9-6.3,3.4-9.7,4.6c-2,0.7-4,1.3-6.1,1.7c-1,0.2-2.1,0.4-3.2,0.5c-3,0.4-6.1,0.5-9.2,0.4
	c-0.6,0-1.2,0-1.8-0.1c-0.6-0.1-1.2-0.1-1.8-0.2c-0.3,0-0.6-0.1-0.9-0.1c-1.4-0.1-2.9-0.4-4.3-0.7c-2.1-0.4-4.2-0.9-6.3-1.5
	c-7.2-2.1-13.9-5.7-19.7-10.5c-2.6-2.1-5-4.5-7.1-7.2c-3.7-4.6-6.3-10-7.6-15.8c-0.5-1.9-0.8-3.9-0.9-5.9c-0.1-1.2-0.2-2.4-0.2-3.6
	c0-0.8,0.1-1.6,0.1-2.3c0-0.3,0.1-0.6,0.1-0.9c0.1-2.2,0.4-4.3,0.9-6.4c0.7-3.2,1.5-6.3,2.7-9.3c2.3-6.3,5.7-12.1,10-17.1
	c2.1-2.5,4.4-4.8,6.9-6.9c3-2.5,6.4-4.6,10.1-6.2c2.6-1.1,5.3-1.9,8.1-2.4c1.8-0.3,3.5-0.6,5.3-0.8c2-0.2,4-0.3,5.9-0.2
	c1,0,1.9,0.1,2.9,0.2c0.5,0.1,1.1,0.1,1.6,0.1c0.7,0.1,1.4,0.1,2.1,0.2c1,0.2,2,0.3,3,0.5c5.6,0.9,11.1,2.8,16.1,5.5
	c2,1.1,3.9,2.3,5.7,3.7c5.7,4.3,10,10.1,12.6,16.8c0.9,2.4,1.7,4.9,2.2,7.4c0.4,1.6,0.7,3.3,0.9,4.9c0.2,1.5,0.4,3,0.5,4.5
	c0,0.9,0.1,1.8,0.2,2.7c0,0.5,0.1,1,0.1,1.4C425.4,207.4,425.4,208.8,425.4,210.4z"/>
<path class="st0" d="M171.7,336.3c-0.2-0.5,5.4-14.4,6.5-15.8c1.3-1.7,2.8-3.4,3.2-3.8c8.9-10.5,22.3-16.8,35.5-19.9
	c19.7-4.6,40.5-3.1,60.6-2.1c14.8,0.7,29.6,1.8,44.2,4c13.3,2,26.6,5.4,38.9,10.8c5.9,2.6,11.6,5.6,16.9,9.3c1.6,1.1,5,3.5,6.2,5.9
	c0.2,0.5,5.9,10,9.7,21.3c3.9,11.9,5.2,25.3,4.8,25.5c-9.8,5.7-23.4,13.9-29.1,13.9c-26.3-0.1-62.3-3-88.6-3.1
	c-22.7,0-59.4-1.8-80.6-14c-9.3-5.3-18.8-10.8-31.1-17.6"/>
<path class="st2" d="M260.3,202.3c0,2-0.1,3.6-0.2,5.3c-0.1,1.2-0.6,4.3-0.8,5.5c-1.4,6.8-4.2,13.3-8.1,19.1
	c-1.1,1.7-2.4,3.3-3.8,4.8c-2.9,2.9-6.3,5.3-10,7c-2.3,1-4.7,1.8-7.1,2.4c-1.8,0.4-3.5,0.7-5.3,1c-0.4,0.1-0.7,0.1-1.1,0.1l-1.8,0.1
	c-1.9,0.2-3.7,0.2-5.6,0l-0.7-0.1c-3.7-0.2-7.3-0.9-10.8-2c-5-1.6-9.8-3.7-14.2-6.4c-1.9-1.1-3.7-2.4-5.4-3.9
	c-5.3-4.5-9.1-10.6-10.8-17.3c-0.4-1.5-0.7-3-0.9-4.6c-0.2-1.5-0.4-3-0.5-4.5c-0.1-0.8-0.1-1.7-0.1-2.5s0-1.7,0.1-2.5
	c0-0.2,0-0.5,0.1-0.7c0.2-2.9,0.7-5.7,1.5-8.5c1.3-4.6,3.3-8.9,6-12.8c2.9-4.3,6.6-8.1,10.9-11.1c2.6-1.9,5.3-3.5,8.2-4.8
	c2.5-1.1,5-1.9,7.7-2.5c1.5-0.3,2.9-0.5,4.4-0.8s3.2-0.3,4.8-0.4c0.7,0,1.3,0,2,0c0.9,0,1.8,0.1,2.7,0.1c0.6,0,1.2,0.1,1.8,0.2
	c0.2,0,0.5,0.1,0.7,0.1c1.7,0.2,3.5,0.5,5.1,0.9c3.7,0.9,7.4,2.1,10.8,3.8c2.4,1.2,4.8,2.5,7,4.1c3.8,2.6,6.9,6.1,9,10.1
	c1.2,2.3,2.1,4.7,2.7,7.2c0.5,2.2,0.9,4.3,1.2,6.6C260.1,197.7,260.2,200.1,260.3,202.3z"/>
<path class="st3" d="M280.2,165.6c-0.1,0.1-0.2,0.2-0.3,0.2c-0.4,0.1-0.8,0.1-1.2,0c-0.1,0-0.2-0.1-0.3-0.1L280.2,165.6z"/>
<path class="st4" d="M286.8,254.4l1.6,0.1c0.4,0,0.8,0.1,1.3,0.1c2,0.2,3.9,0.6,5.8,1.2c1.3,0.4,2.6,1,3.8,1.7
	c0.8,0.4,1.4,0.9,2,1.5c0.1,0.1,0.2,0.2,0.2,0.3c0.6,0.7,0.9,1.6,0.9,2.5c0,0.7-0.1,1.3-0.4,1.9c-0.2,0.6-0.5,1.1-0.9,1.6
	c-1.3,1.9-3.2,3.3-5.4,4c-0.7,0.3-1.4,0.4-2.1,0.5c-1.4,0.3-2.7,0.4-4.1,0.3c-0.6,0-1.2-0.1-1.8-0.2c-0.9-0.2-1.9-0.3-2.8-0.5
	c-1.9-0.5-3.8-1.2-5.5-2.2c-0.8-0.5-1.6-1.1-2.3-1.8c-0.6-0.6-1.1-1.4-1.4-2.3c-0.1-0.2-0.1-0.5-0.1-0.7c0-0.4,0-0.7,0-1.1
	c0-0.3,0.1-0.7,0.2-1c0.3-0.8,0.8-1.6,1.4-2.3c1.9-2,4.5-3.3,7.3-3.5L286.8,254.4z"/>
<path class="st4" d="M344.5,207.4c-0.1-2.1,0-4.3,0.3-6.4c0.4-4.1,1.7-8,3.6-11.6c1.1-2.1,2.6-4.1,4.3-5.8c2.4-2.3,5.2-4,8.4-5
	c2.9-0.9,5.9-1.3,8.9-1.1c1.7,0.1,3.3,0.4,5,0.9c3.3,1,6.6,2.3,9.6,3.9c2.9,1.5,5.6,3.4,8.1,5.6c1.7,1.5,3.2,3.1,4.5,4.9
	c1.3,1.6,2.3,3.4,3.1,5.2c0.6,1.3,1,2.6,1.2,3.9c0.2,1.3,0.3,2.6,0.2,3.9c-0.1,1.8-0.4,3.6-0.9,5.3c-0.9,2.9-2,5.7-3.5,8.3
	c-1.6,3-3.7,5.7-6.1,8s-5.2,4.1-8.3,5.3c-1.8,0.6-3.6,1-5.4,1.3c-1.7,0.2-3.3,0.3-5,0.3c-1,0-1.9-0.1-2.9-0.2c-1-0.1-2-0.2-3-0.4
	c-4.6-0.8-8.9-2.8-12.5-5.6c-1.4-1.1-2.8-2.3-4-3.7c-2-2.2-3.5-4.8-4.4-7.6c-0.6-1.9-1-3.8-1.1-5.8
	C344.6,209.9,344.5,208.7,344.5,207.4z"/>
<path class="st4" d="M215.4,226.9c-2.7,0-5.4-0.6-7.8-1.8c-3.9-1.8-7.4-4.3-10.4-7.3c-3.6-3.7-6.3-8.2-7.7-13.2
	c-0.5-1.7-0.8-3.4-1-5.1c-0.2-1.7-0.2-3.3,0.1-5c0.2-1.4,0.5-2.7,0.9-4c0.9-2.7,2.2-5.2,4-7.4c2.3-2.9,5.4-5,8.9-6.1
	c1.1-0.4,2.3-0.6,3.5-0.8c1.1-0.1,2.1-0.3,3.2-0.3c0.4,0,0.8-0.1,1.3-0.1c1.6-0.2,3.2-0.2,4.9,0l0.7,0.1c1.9,0.2,3.8,0.6,5.6,1.1
	c3.5,1.1,6.8,2.7,9.8,4.8c2.7,1.9,5,4.1,6.9,6.7c1.6,2.1,2.8,4.4,3.6,6.8c0.6,1.9,1,3.8,1,5.8c0,3.1-0.7,6.2-2,9
	c-0.4,0.9-0.9,1.7-1.4,2.5c-2.6,4.1-6.1,7.6-10.3,10.2c-2.5,1.5-5.2,2.7-8.1,3.4c-1,0.3-2,0.5-3,0.6
	C217.2,226.9,216.3,226.9,215.4,226.9z"/>
<path class="st2" d="M368,225.4c-0.5,0-1.1,0-1.6-0.1c-0.2,0-0.3-0.1-0.5-0.2c-0.2-0.1-0.3-0.3-0.3-0.4c0-0.2,0-0.5,0.1-0.7
	c0.2-0.2,0.4-0.5,0.6-0.7c1-1.1,2.2-2.1,3.3-3c1-0.8,2.1-1.6,3.1-2.4s2-1.5,3-2.3c0.9-0.7,1.7-1.5,2.5-2.3c1.4-1.4,2.7-3.1,3.6-4.9
	c0.3-0.6,0.7-1.3,1-1.9c0.4-0.8,0.9-1.7,1.5-2.4c0.4-0.5,0.8-1,1.3-1.5c0.3-0.3,0.6-0.5,1-0.7s0.9-0.3,1.4-0.3c0.4,0,0.7,0.2,1,0.4
	c0.3,0.3,0.5,0.5,0.6,0.9c0.3,0.6,0.5,1.2,0.6,1.9c0.4,1.4,0.6,3,0.5,4.4c-0.1,1.6-0.6,3.1-1.2,4.5c-0.8,1.6-1.8,3.1-3,4.4
	c-1.6,1.7-3.4,3.1-5.4,4.1c-1.8,0.9-3.6,1.6-5.5,2.1c-1.5,0.4-3,0.7-4.6,0.9C370.1,225.3,369,225.4,368,225.4z"/>
<path class="st5" d="M370.4,197.7c0,0.9-0.2,1.7-0.5,2.5s-0.7,1.5-1.2,2.2c-0.1,0.1-0.2,0.3-0.3,0.4c-0.8,0.9-2.1,1.2-3.3,0.8
	c-1.4-0.5-2.5-1.4-3.2-2.7c-0.2-0.4-0.4-0.9-0.5-1.3c-0.1-0.5-0.1-1,0.1-1.4c0.2-0.5,0.5-1,0.8-1.4c1-1,2.3-1.8,3.7-2.1
	c0.7-0.2,1.3-0.2,2-0.2c0.3,0,0.7,0.1,1,0.2c0.6,0.2,1.1,0.8,1.2,1.4C370.4,196.7,370.4,197.2,370.4,197.7z"/>
<path class="st2" d="M233.5,199.3c0,1.3-0.2,2.6-0.5,3.9c-0.7,2.6-1.7,5.1-3.2,7.4c-1.1,1.7-2.3,3.4-3.7,4.9c-0.4,0.5-1,0.9-1.6,1.2
	c-0.5,0.3-1.1,0.4-1.7,0.5c-1.1,0.2-2.1,0.2-3.2,0.1c-2-0.2-4-0.9-5.7-2.1c-0.4-0.3-0.8-0.6-1.1-0.9c-0.3-0.2-0.5-0.5-0.8-0.8
	c-0.9-1-1.2-2.3-0.9-3.5c0.1-0.5,0.3-0.9,0.7-1.3c0.6-0.7,1.4-1.2,2.3-1.4l0.5-0.1c0.4-0.1,0.8-0.1,1.3,0l1.2,0.3
	c1.1,0.3,2.2,0.1,3.1-0.4c0.4-0.2,0.8-0.5,1.2-0.8c0.5-0.5,0.9-1,1.3-1.5c0.8-1.1,1.5-2.2,2.2-3.3s1.6-2.4,2.4-3.6
	c0.4-0.7,0.9-1.3,1.5-1.8c0.2-0.2,0.5-0.4,0.7-0.6c0.8-0.5,1.7-0.6,2.6-0.2c0.8,0.3,1.3,0.9,1.4,1.7c0.1,0.4,0.1,0.7,0.1,1.1
	C233.5,198.5,233.5,198.9,233.5,199.3z"/>
<path class="st5" d="M211.8,188.9c0,1.4-0.4,2.8-1.1,4.1c-0.3,0.5-0.6,0.9-1,1.3c-0.4,0.4-0.9,0.8-1.5,1c-0.3,0.1-0.6,0.2-0.9,0.2
	h-0.7c-0.9,0-1.8-0.3-2.5-0.8c-1-0.6-1.7-1.5-2.2-2.6c-0.2-0.5-0.3-1-0.3-1.6c0-0.7,0.2-1.3,0.7-1.8c0.2-0.2,0.4-0.4,0.6-0.6
	c1.1-0.9,2.4-1.6,3.8-1.9c1-0.3,2.1-0.3,3.2-0.1c1,0.2,1.7,1,1.8,2C211.8,188.4,211.8,188.6,211.8,188.9z"/>
</svg>
