<?xml version="1.0" encoding="utf-8"?>
<!-- Generator: Adobe Illustrator 21.0.0, SVG Export Plug-In . SVG Version: 6.00 Build 0)  -->
<svg version="1.1" id="Ebene_1" xmlns="http://www.w3.org/2000/svg" xmlns:xlink="http://www.w3.org/1999/xlink" x="0px" y="0px"
	 viewBox="0 0 911.8 812.2" style="enable-background:new 0 0 911.8 812.2;" height="256" xml:space="preserve">
<style type="text/css">
	.st0{fill:#010201;}
	.st1{fill:#807777;}
	.st2{fill:#52C9C6;}
	.st3{fill:#FAFAFA;}
	.st4{fill:#DDFFFF;}
	.st5{fill:#D9F1F0;}
	.st6{fill:#010302;}
	.st7{fill:#F9F9F9;}
	.st8{fill:#D91377;}
</style>
<title>TOAD - MoonBeam2</title>
<path class="st0" d="M683.3,0.7c21.2,0.4,41.5,10.5,56.5,25c7.7,7.4,14.8,15.7,19.4,25.4c4.7,10,6.8,21,11.5,30.9
	c5,10.8,13.4,20.5,20,30.2c6.5,9.5,13.1,18.8,19,28.7c11.9,20,21.5,41.5,29.9,63.2c7.8,20,12.7,40.1,14.6,61.5
	c1,11.2,1.6,22.3,1.6,33.5c0,4.7,1.5,25-2.8,26.8c-3.3,1.4-11,0-14.4,0c-27.7,0-55.4,0-83.1,0c-44.7,0-89.3,0-134,0
	c-50.6,0-101.1,0-151.7,0c-44.8,0-89.6,0-134.3,0c-27.5,0-54.9,0-82.4,0c-2.1,0-13.2,1.3-14.9-0.3c-2-1.8-1-12.1-1.1-14.9
	c-0.2-5.7-0.2-11.5-0.1-17.2c0.1-10,0.7-20,1.7-29.9c2.1-21.4,7.2-42.1,12.3-62.9c5.3-21.4,14.4-43.2,25.2-62.4
	c5.3-9.4,11.6-18.4,18.4-26.8c6.5-7.9,18-14.1,20.5-24.5c2.8-11.6,4.8-22.5,10.4-33.2c4.9-9.2,11.4-17.4,19.2-24.3
	C360,15.9,380.6,6,401.1,4.2c9-0.8,17.9,0,26.6,2.2c8.6,2.2,18.2,9.5,27.2,8.6c11.3-1.1,22.7-5.2,34-6.8c11.1-1.6,22.3-2.5,33.5-2.7
	c20.8-0.2,41.5,1.4,61.9,4.9c10.5,1.8,22,6.1,32.6,4.5c9.7-1.5,17.6-8.5,27-11.2c7.2-2.1,15.1-3,22.4-3.6
	C671.2-0.2,678.8-0.7,683.3,0.7z"/>
<path class="st1" d="M683.3,0.7c-1.2,0.5-5.6,0.5-6.6-0.5C678.2,0.2,682.8-0.6,683.3,0.7z"/>
<path class="st2" d="M503.5,36.5c1.7-1,4.6-0.3,6.6-0.5c2.8-0.2,5.7-0.5,8.6-0.6c7.9-0.2,15.9-0.2,23.8,0.2
	c12.7,0.7,26.7,1.2,39.1,4.5c7.6,2,0.9,9.3-1.4,13.9c-3.9,7.7-7.1,15.7-9.5,24c-4.4,15-5.8,31-3.7,46.5c8.9,64.6,89,99,146.5,77.1
	c15.1-5.8,27.6-16,37.3-28.9c4.4-5.9,8.3-12.3,11.7-18.9c1.9-3.8,3.2-8.4,5.4-11.9c2.7-4.3,4.4-2.6,7.1,1
	c10,13.2,17.2,28.6,23.6,43.7c6.9,16.3,13.2,32.8,18.1,49.8c4.5,15.3,7.5,31,8.4,47c0.2,3.3,1.5,10.2,0.2,13.4c-1,2.7-0.8,2-4.4,2.1
	c-0.8,0-1.7,0-2.5,0c-14.4,0-28.9,0-43.3,0c-15,0-30,0-45,0c-1.1,0-2.3,0-3.4,0c-6-0.2-8.6-6.4-12.5-10.6
	c-10.9-11.8-23.6-21.8-37.3-30.2c-52.4-32.3-112.9-37-172.9-38c-59.9-1.1-132.4-8.2-177.3,40.4c-5.6,6.1-10.5,12.8-14.6,20
	c-1.8,3.2-3.5,6.4-5.1,9.8c-1.1,2.4-1.9,7-4.2,8.5c-2,1.3-10.7,0.1-13,0.1c-4.6,0-9.1,0-13.7,0c-2.3,0-9.3,1.2-10.8-0.3
	c-1.3-1.3-0.3-7.3-0.2-9.2c1.5-32.7,8.8-65.4,20.1-96.1c6-16.2,13.1-32,21.6-46.9c2.1-3.7,5.8-14.5,10.1-10.5
	c1.8,1.6,2.8,5.7,3.9,7.9c2.2,4.2,4.6,8.3,7.3,12.2c18.1,25.3,52.6,35.8,82.5,37.1c14.9,0.6,30.4-1.4,43.1-9.8
	c13.7-9.1,24.1-23,31.7-37.4c15.1-28.6,21.9-62.6,5.1-92.1c-1.9-3.4-4.3-6.4-6.5-9.6c-2.2-3.1-2.5-3.4,1.8-4.6
	c3.4-1,7.3-1.3,10.8-1.8C498.5,37.4,504.1,37.3,503.5,36.5z"/>
<path class="st3" d="M750.5,110.1c-1.1,16.6-4.2,32.8-14.1,46.7c-9.9,14-25.3,23-41.8,27c-30.7,7.5-67-3.8-88.4-26.9
	c-24.6-26.5-22-65.3-3.8-94.6c9.1-14.7,22.3-27.7,38.6-33.9c16-6.1,34-5.9,50.5-2.2c17.7,4,34.6,13.4,45.2,28.5
	C748.1,70.8,750.5,90.9,750.5,110.1z"/>
<path class="st4" d="M510.2,299c-33.9,0-67.7,0-101.6,0c-19,0-38.1,0-57.1,0c-3.3,0-6.5,0.1-9.8,0c-3.4-0.1-3.6,0.6-2.9-2.2
	c1-4.2,6.3-9.2,9.1-12.3c6.9-7.7,15.3-13.8,24.3-18.8c36.7-20.3,80.9-18.4,121.4-16.6c38,1.7,76.2,3.2,113.3,12.7
	c21.2,5.4,42.3,13.3,60.7,25.3c4,2.6,7.9,5.4,11.6,8.4c3.5,2.9,4.1,3.4-0.6,3.4c-1,0-2.1,0-3.1,0c-15.4,0-30.8,0-46.2,0
	c-38.9,0-77.7,0-116.6,0C511.9,299,511.1,299,510.2,299z"/>
<path class="st3" d="M477.1,96.7c-0.3,27.8-12.8,58.9-40.1,69.9c-27.3,11-60.7,3.6-83.1-14.8c-23.4-19.3-26.6-53.5-13.8-79.8
	c13.5-28,43.6-44,74.3-41.2c15.4,1.4,31.3,7.3,43.4,17C472.9,59.8,476.5,78.2,477.1,96.7z"/>
<path class="st5" d="M503.5,36.5c0.9-0.2,1.8-0.1,2.5,0.5c-1.8,1.5-7.8,1.1-10.1,1.5c-2.7,0.4-10.4,3.5-12.6,2.4
	c-3.7-1.9,5-2.8,6.6-3C494.4,37.2,499,36.6,503.5,36.5z"/>
<path class="st5" d="M510.1,36c-0.7,0.6-2.1,0.6-2.8,0C508.2,36,509.2,35.9,510.1,36z"/>
<path class="st6" d="M521,182.9c7.3,0.3,19.5,1.3,24.2,8c6.1,8.9-6.9,16.6-14,17.6c-8.4,1.2-24.3-1.1-28-10.1
	C498.7,187.6,513.4,183.4,521,182.9z"/>
<path class="st6" d="M616.6,105.1c-1-19,7.5-40.6,26.5-47.3s41.1,3.5,54.9,16.7c6.4,6.1,12.1,13.8,13.3,22.8c1.4,10-2.6,20.5-7.6,29
	c-10.2,17.5-27.9,25.8-47.9,22.9C633.3,145.9,616.1,128.4,616.6,105.1z"/>
<path class="st6" d="M402.8,137.5c-22.8,0.4-42.4-24.4-44.5-45.5c-1.1-11,2.8-22.6,10.8-30.3s19.8-9.9,30.6-9.5
	C421.3,53,446,69,448.1,92C450.3,115.9,425.4,137.2,402.8,137.5z"/>
<path class="st3" d="M655.5,134.9c-8.1-0.4-0.5-5.8,2.8-8.4c3.8-3.1,7.9-5.8,11.6-9c3.6-3.1,6.4-6.6,8.8-10.7
	c1.9-3.3,4.5-10.9,9.1-11.2c5.3-0.4,5.9,8.5,5.6,12.4c-0.4,4.8-2.6,9.3-5.6,13.1C680.3,130.4,667.1,135.2,655.5,134.9z"/>
<path class="st7" d="M659.5,89c0,3.8-2.2,9.9-6.7,10.2c-4.1,0.3-8.4-4.3-8.1-8.2C645.2,84.2,659.4,79.8,659.5,89z"/>
<path class="st3" d="M432.8,91.7c0.3,8.9-6.5,24.5-14.9,28.7c-6.4,3.2-25.9-1.3-21.9-11.5c1.8-4.5,5.8-3.7,9.6-3.4
	c5,0.3,7.6-2.3,10.5-6.3c2.8-3.9,5.1-9.5,8.8-12.6C430,82.5,432.8,86.7,432.8,91.7z"/>
<path class="st7" d="M396.9,74.6c-0.1,4-1.8,9-5.8,10.5c-4.3,1.6-9.5-1.4-10.6-5.7C378.1,70.7,396.6,65.2,396.9,74.6z"/>
<circle class="st8" cx="213" cy="402.2" r="16.9"/>
<circle class="st8" cx="78.9" cy="480.6" r="16.9"/>
<circle class="st8" cx="55.9" cy="637.7" r="16.9"/>
<circle class="st8" cx="453.5" cy="716.6" r="16.9"/>
<circle class="st8" cx="156.3" cy="402.2" r="16.9"/>
<circle class="st8" cx="873" cy="401.8" r="16.9"/>
<circle class="st8" cx="22.2" cy="480.6" r="16.9"/>
<circle class="st8" cx="563.7" cy="480.6" r="16.9"/>
<circle class="st8" cx="213" cy="559" r="16.9"/>
<circle class="st8" cx="795.3" cy="559" r="16.9"/>
<circle class="st8" cx="112.6" cy="637.7" r="16.9"/>
<circle class="st8" cx="343.3" cy="637.9" r="16.9"/>
<circle class="st8" cx="414.1" cy="637.9" r="16.9"/>
<circle class="st8" cx="894.9" cy="637.9" r="16.9"/>
<circle class="st8" cx="510.2" cy="716.6" r="16.9"/>
<circle class="st8" cx="806.1" cy="716.6" r="16.9"/>
<circle class="st8" cx="326.8" cy="795.2" r="16.9"/>
<circle class="st8" cx="624.3" cy="795.2" r="16.9"/>
<rect x="213" y="384.9" class="st8" width="665" height="33.8"/>
<rect x="78.9" y="463.7" class="st8" width="484.8" height="33.8"/>
<rect x="213" y="542.1" class="st8" width="582.3" height="33.8"/>
<rect x="414.1" y="621" class="st8" width="480.8" height="33.8"/>
<rect x="510.2" y="699.7" class="st8" width="295.9" height="33.8"/>
<rect x="326.8" y="778.3" class="st8" width="297.6" height="33.8"/>
<rect x="112.6" y="620.8" class="st8" width="230.6" height="33.9"/>
<circle class="st8" cx="270.1" cy="795.2" r="16.9"/>
</svg>
