<?xml version="1.0" encoding="utf-8"?>
<!-- Generator: Adobe Illustrator 21.0.0, SVG Export Plug-In . SVG Version: 6.00 Build 0)  -->
<svg version="1.1" id="Ebene_1" xmlns="http://www.w3.org/2000/svg" xmlns:xlink="http://www.w3.org/1999/xlink" x="0px" y="0px"
	 viewBox="0 0 671.2 831.1" style="enable-background:new 0 0 671.2 831.1;" height="256" xml:space="preserve">
<style type="text/css">
	.st0{fill:#010302;}
	.st1{fill:#585B5B;}
	.st2{fill:#818080;}
	.st3{fill:#B8B5B5;}
	.st4{fill:#7C8180;}
	.st5{fill:#AE9898;}
	.st6{fill:#5CCDCA;}
	.st7{fill:#F1B707;}
	.st8{fill:#FFFFC2;}
	.st9{fill:#FAFAFA;}
	.st10{fill:#F9FAFA;}
</style>
<title>TOAD - MoonRiver2</title>
<path class="st0" d="M670.7,341.3c-0.2,5.7-9,13-12.6,17.2c-5.6,6.4-11.4,12.6-17.5,18.6c-12.3,12-24.6,22.3-40.2,29.7
	c-28.9,13.7-61.7,20.5-93.5,21.6c-29.3,1.1-58.7-3.8-86.2-14c-32.5-12.2-58.4-32.6-86.5-52.3c-26.8-18.8-55.9-34.3-88.6-39.4
	c-29.6-4.6-60.2-5.6-89.7,0.2c-33.1,6.4-62,20.6-88.9,40.6c-12.7,9.4-25.3,18.8-37.6,28.7c-2.3,1.9-14,13.9-16.7,13
	c-1.5-0.5-3-8.3-3.4-9.6c-1.1-3.6-2.2-7.2-3.1-10.9c-6.5-25.9-6.4-53-5.5-79.4C1.8,271,11.1,237.1,22.6,205
	c5.9-16.5,13-32.3,21.3-47.8c7.8-14.6,15.6-29.2,26.4-41.9c5.1-6,10.9-11.3,16.8-16.5c7-6.2,8.6-11.4,10.7-20.1
	c3.6-15.1,10.4-29.4,20.3-41.4c18.2-21.9,47-36.2,75.3-37.3c12.8-0.5,25.3,1,37.3,5.9c6.7,2.8,13.5,8.6,20.9,7.2
	c9.1-1.7,18.2-3.8,27.4-5.1c35.5-5,71.5-2.8,106.6,3.9c15.5,3,33.3,11.2,48.7,4.7c7.7-3.2,14.2-7.3,22.5-9.1s17-2.3,25.4-2.3
	c33.8-0.1,61.3,12.7,83.3,38.1C575.6,55,581,68.4,585.2,83.1c2.1,7.2,4.1,14.4,8,20.9c4.3,7.1,9.1,13.8,13.3,20.9
	c9,15,18.9,29.3,26.9,44.8c8,15.6,14.8,31.8,21.2,48.2c6.3,16.2,11.8,32.6,14.3,49.9c2.3,16.1,1.3,32.3,2,48.5
	C671.4,324.3,671.9,333.5,670.7,341.3z"/>
<path class="st1" d="M0,327.7c2.1,1.5,1.2,8.5,1.1,10.4c-0.1,3.1,0.6,7-0.1,9.9C-2,343,0,333.4,0,327.7z"/>
<path class="st2" d="M670.7,304.7c0,0,0.5,11.5,0.5,13C669.9,316.1,670,306.5,670.7,304.7z"/>
<path class="st3" d="M0,313.1c1.4-1.5-0.2-4.1,1.1-5.6c0.6,1.6,0.6,9.1-1.1,10.1C0,316.1,0,314.6,0,313.1z"/>
<path class="st4" d="M670.7,341.3c-0.7-1.7-0.7-9.8,0.5-11.3C671.2,332.7,672.2,339.5,670.7,341.3z"/>
<path class="st5" d="M205.4,0c-0.1,1.1-4.2,0.7-5.1,0C202,0,203.7,0,205.4,0z"/>
<path class="st6" d="M203.5,359.8c45.7,0,91.4,11.2,130.6,35.3c48.5,29.8,86.2,65.8,145.4,73.8c28.7,3.9,57.9,1.2,85.4-8.1
	c20.8-7,38.1-18.4,56.8-29.5c9.8-5.8,16.1-13,27.1-6.3c31.5,19.3-22.9,48-37.6,55.9c-80,42.8-176.7,30-249-22
	c-43.9-31.6-86-58.9-141.5-62.6c-44.6-2.9-88.6,6.6-126.6,30.6c-10.1,6.4-60.7,54.2-70.7,19.8c-7.1-24.4,45-47.7,62.4-57
	C121.8,370.7,162.6,359.4,203.5,359.8z"/>
<path class="st7" d="M255.1,235.4c-32-1.5-64.8-2.6-96.1,6c-32.7,9-60.8,29.3-77.6,59.1c-4.1,7.3-7.2,15-10.3,22.7
	c-3.5,8.5-9.6,11.1-16.8,16.3c-2,1.4-17.6,15.3-19.3,14.6c-2.9-1.2-2.3-22.1-2.3-25c-0.8-31.5,4.8-63.2,13.7-93.3
	c5.2-17.7,11.8-35,19.5-51.7c3.7-8,7.7-15.8,12-23.5c2.3-4.1,4.7-8.1,7.2-12.1c1.3-2.1,5.1-10.5,7.5-10.7
	c3.9-0.4,8.5,14.3,10.4,17.6c4.3,7.6,9.5,14.6,16,20.4c12.9,11.7,29.3,18.3,45.8,23.1c16.1,4.6,33.5,7.5,50.2,5.3
	c17.4-2.3,31.4-10.4,43.5-23c23.5-24.5,40.7-62.3,36.1-96.7c-1.1-8-3.3-15.9-6.7-23.3c-1.7-3.7-3.6-7.2-5.8-10.6
	c-1-1.5-5.9-6.5-4.9-8.8c1.3-3.2,15.9-2.5,19-2.7c8.7-0.6,17.4-0.8,26-0.5c16.2,0.4,32.3,1.9,48.3,4.6c4.5,0.8,18.9,1,18,7.5
	c-0.4,2.8-3.8,6.6-5.2,9c-2.5,4.4-4.8,9-6.8,13.6c-12.9,29.6-16.1,64.3-2,94.1c14.9,31.4,47,51.6,79.9,59.7
	c32.1,7.8,68.9,4.5,94.8-17.7c12.6-10.8,22.3-24.8,29.7-39.6c1.1-2.2,2.9-9.3,5.6-10c3.3-0.8,5.3,4.4,6.7,6.6
	c5.2,8,9.7,16.5,13.7,25.2c14.9,32.1,26.9,67.6,31.8,102.7c1.2,8.3,1.8,16.8,1.8,25.2c0,5.8,1.3,15.3-1.1,20.6
	c-1.5,3.2-6.1,6.6-8.5,9.2c-2.8,2.9-5.6,5.9-8.4,8.8c-6.3,6.4-12.8,12.2-20.4,17.1c-7.1,4.6-14.6,8.5-22.4,11.7
	c-4.1,1.6-8.4,3.1-12.6,4.3c-2.8,0.8-12.7,4.6-15.1,3c-1.7-1.1-1.2-7.7-1.5-9.7c-0.5-4.1-1.1-8.1-2-12.1c-2-8.8-5-17.4-9.1-25.5
	c-15.6-30.9-43.5-54.4-73.2-71.2c-50.4-28.4-107.6-34.7-164.2-38C285.1,236.9,270,236.5,255.1,235.4z"/>
<path class="st8" d="M235.2,265.6c41.8,1.5,84.4,4,125.7,11c51.2,8.6,111.8,26.6,140.8,73.6c6.6,10.7,11,22.6,13.5,34.9
	c0.7,3.2,3.8,12.8,2.2,15.8c-1.3,2.5-11.2,1.5-14,1.6c-25.1,0.5-49.9-3.5-73.4-12.4c-26.9-10.1-49.2-26.4-72.1-43.2
	c-22.8-16.7-47.1-32.1-74-41.6c-27-9.5-56.8-12.7-85.4-12.7c-13.4,0-26.7,1-40,3c-7.2,1.1-14.4,2.5-21.4,4.3
	c-1.7,0.4-15.6,5.7-16.8,4.2c-0.6-1.8,7.7-8.1,9.2-9.4c4.5-3.8,9.4-7.1,14.5-10c9.6-5.5,19.8-9.7,30.5-12.7
	C194.4,266.5,214.8,265.6,235.2,265.6z"/>
<path class="st9" d="M564.8,118.6c-0.6,38.1-16.6,72.7-55.2,84.5c-34.2,10.5-74.9-1.3-99.5-26.9c-27.5-28.5-25.7-70-5.8-102.3
	c9.4-15.3,22.9-29,39.5-36.3c16.3-7.2,34.6-7.6,51.9-4.5c19.9,3.6,39.3,12.8,52.1,28.8C560.9,78,564,98.3,564.8,118.6z"/>
<path class="st9" d="M269.8,97c0,30.1-12.4,65-41.7,78.2c-29.5,13.3-65.3,4.7-90-14.5c-25.9-20.1-30.7-56-17.7-85
	c13.5-30.2,45.5-49.3,78.5-46.9c18.1,1.3,36.5,8.1,50.7,19.6C264.5,60.4,269.2,78.6,269.8,97z"/>
<path class="st0" d="M312.9,197.9c8.1,0.2,23.5,2,27.5,10.7c5,10.9-11.5,17.4-19.4,17.5c-8.7,0.1-26-3.5-27.5-14.1
	C292.1,201.7,305.1,197.8,312.9,197.9z"/>
<path class="st0" d="M420.1,118.3c0.4-19.6,7-41.4,26.7-49.7c20-8.5,43,1.4,58.3,15c7.2,6.3,14,14.3,16.6,23.7
	c3.2,11.4-0.9,23.2-6.5,33.2c-10.9,19.7-30.3,29.7-52.6,26.3C437.4,162.9,419.8,143.8,420.1,118.3z"/>
<path class="st0" d="M183.3,51.8c19.1,0,38.4,9.7,48.8,25.9c11,17.1,6.7,36.5-7.3,50.5c-13.9,13.8-35.7,21.1-53.5,10.7
	c-17-9.9-29.7-27.5-29.9-47.7c-0.1-10.3,3.8-20.6,10.9-28.1C161.1,53.8,171.5,53.2,183.3,51.8z"/>
<path class="st9" d="M462.2,151c-6.9-0.4-5.9-2.6-1-6.6s10.3-7.2,15.3-11.1c4.8-3.8,8.3-8.1,11.4-13.3c1.8-3.1,5.4-10.7,10-10.5
	c5.3,0.3,5.3,10.8,4.8,14.4c-0.7,5.5-3.6,10.5-7.4,14.5C487.1,147.1,474,151,462.2,151z"/>
<path class="st9" d="M467.1,101.3c-0.4,9.3-11.5,15.9-15.7,4.9C447.9,96.7,467.2,90.6,467.1,101.3z"/>
<path class="st9" d="M222.2,94.7c0.4,10.1-7.5,26.1-16.5,31.1c-6.9,3.8-26-0.8-24.5-11.2c0.8-5.3,5.7-5.8,9.9-5.3
	c5.1,0.6,7.7-0.2,11.1-4.2c4-4.6,6.6-11.1,11.3-15C218.1,86.4,222.2,89.1,222.2,94.7z"/>
<path class="st10" d="M177.8,70.5c11.7,1.2,4.6,19.1-4.9,16.9c-4.6-1.1-8.9-6.9-6.5-11.5C168.5,72.2,174,70.9,177.8,70.5z"/>
<circle class="st6" cx="75.2" cy="496.9" r="19.3"/>
<circle class="st6" cx="75.2" cy="623.8" r="19.3"/>
<circle class="st6" cx="149.1" cy="457.6" r="19.3"/>
<circle class="st6" cx="149.1" cy="635.6" r="19.3"/>
<circle class="st6" cx="223.2" cy="452.6" r="19.3"/>
<circle class="st6" cx="223.2" cy="811.8" r="19.3"/>
<circle class="st6" cx="297.1" cy="483.5" r="19.3"/>
<circle class="st6" cx="297.1" cy="611.4" r="19.3"/>
<circle class="st6" cx="371" cy="529" r="19.3"/>
<circle class="st6" cx="371" cy="560.4" r="19.3"/>
<circle class="st6" cx="445.1" cy="555.8" r="19.3"/>
<circle class="st6" cx="445.1" cy="736.3" r="19.3"/>
<circle class="st6" cx="518.2" cy="565.9" r="19.3"/>
<circle class="st6" cx="518.9" cy="717" r="19.3"/>
<circle class="st6" cx="592.3" cy="548.3" r="19.3"/>
<circle class="st6" cx="592.3" cy="616.3" r="19.3"/>
<rect x="55.9" y="496.9" class="st6" width="38.6" height="126.9"/>
<rect x="129.8" y="459" class="st6" width="38.6" height="176.7"/>
<rect x="203.9" y="452.8" class="st6" width="38.6" height="359"/>
<rect x="277.5" y="484.7" class="st6" width="38.6" height="126.9"/>
<rect x="351.7" y="523.7" class="st6" width="38.6" height="38.6"/>
<rect x="425.8" y="555.8" class="st6" width="38.6" height="182.5"/>
<rect x="499.6" y="565.9" class="st6" width="38.6" height="152.5"/>
<rect x="572.7" y="545.6" class="st6" width="38.6" height="70.8"/>
</svg>
