<?xml version="1.0" encoding="utf-8"?>
<!-- Generator: Adobe Illustrator 21.0.0, SVG Export Plug-In . SVG Version: 6.00 Build 0)  -->
<svg version="1.1" id="Ebene_1" xmlns="http://www.w3.org/2000/svg" xmlns:xlink="http://www.w3.org/1999/xlink" x="0px" y="0px"
	 viewBox="0 0 838.9 566.4" style="enable-background:new 0 0 838.9 566.4;" height="256" xml:space="preserve">
<style type="text/css">
	.st0{fill:#636363;}
	.st1{fill:#8F9090;}
	.st2{fill:#010202;}
	.st3{fill:#CEFDDC;}
	.st4{fill:#00FB4C;}
	.st5{fill:#FDFDFD;}
</style>
<title>TOAD - Regular2</title>
<path class="st0" d="M0,263.2c0.5-0.3,2.1,14.4,0,14.1C0,272.6,0,267.9,0,263.2z"/>
<path class="st1" d="M263.5,0.4c0-0.6,9.4-0.3,10.8-0.3C273,1.8,265.4,1.4,263.5,0.4z"/>
<path class="st2" d="M263.5,0.4c8.3,0,16.3,0.1,24.5,1.8c12.8,2.7,25.5,13.1,38.5,12.5c16.4-0.7,32.9-6.1,49.5-7.3
	c16.5-1.2,33-0.9,49.4,0.4c17,1.4,33.9,3.8,50.6,7.4c14.5,3.1,30.5,10.1,45,3.9c13.3-5.8,24.6-11.1,39.4-12.1
	c15.4-1.1,31.7-0.3,46.7,3.8c27,7.4,50.7,27.3,64.3,51.6c7.3,13.1,8.9,28.1,14.7,41.8c5.6,13.4,15.5,25.9,23.3,38
	c18.1,28.1,32.7,57,44.9,88.1c4.1,10.4,6.3,27.4,16.7,33.6c5.2,3.1,11.8,3.3,17.5,4.8c7.2,2,13.9,5.2,20.1,9.4
	c20.6,13.8,32.2,38.4,29.8,63.2c-2.9,30.8-24.9,54.9-41,79.7c-3,4.7-9.7,12.5-9.2,18.3c0.5,5.7,8.1,11.3,12.5,14.1
	c8.5,5.3,27.6,6,22.8,20.5c-4.2,12.6-23.2,16.4-34.6,17.4c-7.2,0.6-14.5,0.1-21.5-1.6c-5.6-1.4-13.1-6.9-18.6-4.3
	c-4.9,2.3-9.4,9.7-13.3,13.4c-5.4,5.1-11.2,9.8-17.3,14.1c-5.9,4.1-12.8,7-18.4,11.2c-6.2,4.6-3.4,7.9-2.6,14.8
	c1,8.2-6.7,5.3-13.3,5.2c-10.5-0.2-10.5-1.4-7.9,8.8c1.8,7.2-0.9,6.7-8.1,5.9c-7.6-0.9-14.5-4-20.6-8.4c-4.6-3.3-8.7-9.6-14-11.6
	c-6.5-2.5-15.5,3.2-21.7,5.3c-14.7,5.2-29.7,9.5-44.9,12.8c-32.9,7.1-66.7,9.5-100.3,9.6c-65,0.2-130.3-7.2-193.3-23.9
	c-30.7-8.1-61.9-17.7-90.4-32.1c-6.8-3.5-13.6-7.2-20-11.4c-5.9-3.9-11.1-9.8-17.3-13c-11.3-6-21.5,15.6-28.6,22.6
	c-9.9,9.6-22.9,17.4-37.2,13.4c4.3-6,8.5-11.9,12.8-17.9c-7.5,0.6-14.9,1.3-22.4,1.9c0-5.5,10-16.5,12.9-21.3
	c2.7-4.3,5.4-8.7,8.1-13c1.3-2,7.2-9.1,6.6-11.1c-1.1-3.9-16.4-8.6-20-8c-8.8,1.3-16.9,7-26.1,8.3c-11.9,1.7-39.1,1.6-41.7-14.8
	c-1.2-7.7,6.6-13.1,11.2-18.1c6-6.4,13.1-13.6,17.5-21.3c4.1-7.3-1.9-12.1-5.9-18.4c-5-8-9.4-16.4-13.3-25
	c-7.3-16.3-12.5-33.5-15.6-51c-4.7-26.3-6.6-56,1.7-81.8c5.2-16.2,14.5-33.1,31-39.9c16.3-6.6,41.6-6.8,55.9,4.4
	c9.2-23.7,21.3-46.4,37-66.4c7.5-9.5,16.2-16.9,24.8-25.2c8-7.8,8.1-18.1,11.4-28.3C179.4,33.6,219.8,2.8,263.5,0.4z"/>
<path class="st3" d="M454.7,530.7c-79.3-1.1-162.2-9.5-235.2-42.8c-15.9-7.3-33.5-16.1-44-30.7c-11.4-15.8-13.4-37.1-13.3-56
	c0.3-34.4,12.4-69.6,41-90.5c30.9-22.6,70-27.9,107.3-27.2c40,0.8,80.7,4.1,120.3,9.5c68.1,9.3,156.8,34.8,176.9,110.2
	c5.8,21.8,5.9,44.7,3.7,67.1c-1,10-1.2,22.1-5.4,31.4c-3.5,7.7-10.6,10.5-18.2,12.9C545,528.2,499.5,531.1,454.7,530.7z"/>
<path class="st4" d="M304.4,250.2c-44.8-1.8-93.4,5.3-128.6,35.2c-14.2,12.1-25.4,27.3-33.4,44.1c-4.5,9.5-6.6,21.6-14.7,29
	c-7.7,7-14.9,8.8-18.4,19.7c-1,3-3.1,26-5.2,26.5c-3.2,0.8-6.1-20.8-6.7-24.5c-3.7-25.2-2.9-51,0.7-76.2
	c6.7-46.6,22.3-92.8,45.8-133.7c2.8-4.9,11.5-24.1,16.9-22.9c2.3,0.5,5.4,11,6.6,13.5c2.4,4.9,5.2,9.6,8.4,14
	c11.8,16.2,28.5,26.4,47.1,33.1c21.4,7.8,45.6,13.1,68.5,9.7c23.3-3.4,41-17.8,54.7-36.3c25.2-33.9,39.8-80.6,19.1-120.2
	c-2.2-4.2-6.2-8.3-7.9-12.6c-2.2-5.5,0.2-5.1,6.1-5.7c13-1.3,25.9-2,39-1.8c11.5,0.2,22.9,1,34.3,2.3c6.3,0.8,12.6,1.7,18.9,2.8
	c4.3,0.7,14.1,0.7,17.4,3.7c5,4.6-6.3,18.1-8.8,23c-5.2,10.6-9.1,21.8-11.6,33.3c-4.8,22.2-4.1,45.7,4.5,66.8
	c16.5,40.5,58,65,99.8,71.6c47.2,7.5,89.1-10.8,114-51.7c3.3-5.4,6.1-11.1,8.9-16.7c2.3-4.6,2.6-7.2,7.3-4c3.3,2.3,5.7,8.6,7.7,12.1
	c3.6,6.1,6.9,12.5,9.9,18.9c9.7,20.8,17.4,42.7,24,64.6c7.1,23.8,12.2,48.1,12.3,73c0.1,25.5-3.1,51-6.9,76.2
	c-3.1,21.1-9.1,41.8-23.9,57.8c-7.4,8-16.3,14.5-25.3,20.6c-2.5,1.7-8.9,8-12.4,6.1c-3.9-2.1-3.4-12.4-3.7-15.9
	c-2.1-24.9,0.8-50.1-1.9-75c-0.5-4.3-1.9-25.3-7.6-21.3c-2.3,1.6-2.5,16.5-2.7,19.2c-0.6,6.6-0.8,13.2-1.1,19.8
	c-0.5,12.3-1.2,24.6-1.8,36.9c-0.6,11.3-3.7,25.7-0.2,36.7c3.2,10.2,13,16.4,20.5,23.3c1.3,1.2,8.5,6.3,7.9,8.6
	c-0.9,3.2-9.8-2.2-11.7-3.2c-3.6-1.9-16.8-14.2-19.2-10c-3.8,6.7,13.7,18.8,11.4,24.6c-1.8,4.6-13.8-11.1-14.7-12.7
	c-6.3-10.7-4.9-22.2-3.7-34c4.8-45.6,8.4-97.9-16.4-138.5c-52.3-85.5-161.6-102-252.8-106.6C351.3,252.2,327.9,250.6,304.4,250.2z"
	/>
<path class="st5" d="M662.4,126.6c-0.3,38.6-16.2,74.7-54.3,88.5c-37.9,13.7-84.1,1.2-111.5-28c-28.6-30.4-26.3-74.6-5.3-108.6
	c22.3-36.1,60-51.7,101.3-42.7c20.4,4.5,40.1,14.8,52.8,31.6C658.5,84.6,661.9,105.7,662.4,126.6z"/>
<path class="st5" d="M264.6,193.8c-32.1,0.3-71-23.9-80.4-55.2c-9.8-32.8,2.7-68.5,29-89.8c28-22.6,66.9-22.8,98.2-6.9
	c33.6,17.1,42,54.1,33.5,88.8c-4.5,18.3-14,37.2-29.2,48.8C300.9,190.9,282.7,193.6,264.6,193.8z"/>
<path class="st4" d="M35.3,272.4c0.1-16.4,7.8-66,34.8-51.9c14.1,7.4,7.7,20.5,4.1,32.3c-4.3,14.2-7.5,28.7-9.8,43.4
	c-2.1,13.9-3.3,27.9-3.5,41.9c-0.1,5.4,2.4,18.5,0,23.3c-2.1,4.1-3.8-0.5-5.6-4C42.1,331.6,35.5,301.3,35.3,272.4z"/>
<path class="st4" d="M771.6,398.7c3.1-19.8,4.8-39.5,4.4-59.6c-0.2-10.2-1.2-20.4-1.4-30.6c-0.2-9.8,6.5-6.6,13.2-2.5
	c13.9,8.5,18.6,26.4,14,41.5c-3,9.9-9.1,18.8-14.6,27.5C782.3,382.5,777.7,392.5,771.6,398.7z"/>
<path class="st4" d="M129.2,423c1.1,19.9-1.1,39.4-8.6,58c-1.5,3.8-3.7,13.1-7.2,11.9c-3.1-1-1.3-7.2-5.4-8
	c-1.5-0.3-6.7,4.4-8.1,2.9c-1-1.1,9-11.7,9.9-12.9c3.5-5,5.8-10.4,7.2-16.3c3.5-14,2.5-30,3.4-44.4c0.2-3.7,1.2-38,5.3-37.3
	C131.2,378,129.2,417.5,129.2,423z"/>
<path class="st4" d="M783.8,471.9c-6.5-1.5-14.7-2.2-20.7-5.1c-5.3-2.6-4.3-5.3-3.1-10.5c1-4.2,1.8-12.8,6.7-11.1
	c2.9,1,9,12,11.3,15.1C778.9,461.6,787.7,471.8,783.8,471.9z"/>
<path class="st4" d="M48.8,440.6c-3.9-0.3-8.1,0.9-8.2-3c0-1.9,5.9-7,7-8.3c4.7-5.6,6.7-9.8,12.5-3.5c4,4.3,8.4,8.7,2.3,12.8
	C58.9,440.9,52.9,440.5,48.8,440.6z"/>
<path class="st2" d="M400.5,241.2c-8.6-0.4-25.7-4.1-27.5-14.7c-2.1-12.7,15.3-15.9,24.1-15.3c8.2,0.5,26.6,4.2,26.7,15.2
	C423.9,237.3,408.8,241.4,400.5,241.2z"/>
<path class="st2" d="M508.1,127.3c-0.2-28.1,14.8-58,46.5-57.5c25.7,0.3,61.1,24.1,62.9,51.6c2,29.9-26.6,58-55.6,57.3
	C533.1,178,507.2,157.6,508.1,127.3z"/>
<path class="st2" d="M262.4,153.7c-27.8,0.4-51.5-30.5-51.3-56.7c0.2-29.2,24.2-43.8,51-41.2c23.5,2.2,49.2,20.1,52.2,44.9
	C317.6,128.5,289,153.7,262.4,153.7z"/>
<path class="st5" d="M552.6,161.1c-6.5,0-6-1.6-2.3-5.6c4.9-5.2,12-8.6,17.6-13c5.2-4.1,9-8.5,12.4-14.1c2.1-3.4,6-12.1,11.1-11.3
	c11.1,1.7,2.2,24.2-1.5,28.8C581.1,156.8,566.3,161.1,552.6,161.1z"/>
<path class="st5" d="M558.2,108.3c-0.4,4.8-3.2,11.9-9,11.5c-4.2-0.3-8.7-5.5-8.3-9.6C541.7,102.3,558.4,97.6,558.2,108.3z"/>
<path class="st5" d="M271.2,135.9c-8.1-0.4-28.4-15.4-12.1-19.4c5.9-1.4,8.7,2.7,14.2-1.7c4.3-3.3,7-8.8,10.2-13.1
	c2.3-3.1,5.7-9,10.5-6.8c5.9,2.7,1.9,13.9,0.3,18.2C290.8,122.4,283,136.6,271.2,135.9z"/>
<path class="st5" d="M249.9,75.3c12.2,1,4.5,20.5-5.8,17.8c-4-1-8.2-5.6-7.3-10.1C237.9,77.8,245.4,75.6,249.9,75.3z"/>
</svg>
